<svg width="16" height="10" viewBox="0 0 16 10" fill="none" xmlns="http://www.w3.org/2000/svg">
<path fill-rule="evenodd" clip-rule="evenodd" d="M-1.96729e-07 5.00035C-2.02525e-07 4.86774 0.0526782 4.74056 0.146446 4.64679C0.240215 4.55302 0.367392 4.50035 0.5 4.50035L14.293 4.50034L11.146 1.35434C11.0521 1.26046 10.9994 1.13312 10.9994 1.00034C10.9994 0.867569 11.0521 0.740231 11.146 0.646345C11.2399 0.552458 11.3672 0.499713 11.5 0.499713C11.6328 0.499713 11.7601 0.552458 11.854 0.646345L15.854 4.64634C15.9006 4.69279 15.9375 4.74797 15.9627 4.80871C15.9879 4.86946 16.0009 4.93458 16.0009 5.00034C16.0009 5.06611 15.9879 5.13123 15.9627 5.19198C15.9375 5.25272 15.9006 5.3079 15.854 5.35434L11.854 9.35434C11.7601 9.44823 11.6328 9.50098 11.5 9.50098C11.3672 9.50098 11.2399 9.44823 11.146 9.35434C11.0521 9.26046 10.9994 9.13312 10.9994 9.00034C10.9994 8.86757 11.0521 8.74023 11.146 8.64634L14.293 5.50034L0.5 5.50035C0.367392 5.50035 0.240215 5.44767 0.146446 5.3539C0.0526782 5.26013 -1.90932e-07 5.13295 -1.96729e-07 5.00035Z" fill="#1A1611"/>
</svg>
