<svg width="16" height="10" viewBox="0 0 16 10" fill="none" xmlns="http://www.w3.org/2000/svg">
<path fill-rule="evenodd" clip-rule="evenodd" d="M-1.96729e-07 4.99937C-2.02525e-07 4.86676 0.0526782 4.73958 0.146446 4.64581C0.240215 4.55205 0.367392 4.49937 0.5 4.49937L14.293 4.49937L11.146 1.35337C11.0521 1.25948 10.9994 1.13214 10.9994 0.999368C10.9994 0.866593 11.0521 0.739254 11.146 0.645368C11.2399 0.551482 11.3672 0.498737 11.5 0.498737C11.6328 0.498737 11.7601 0.551482 11.854 0.645368L15.854 4.64537C15.9006 4.69181 15.9375 4.74699 15.9627 4.80773C15.9879 4.86848 16.0009 4.9336 16.0009 4.99937C16.0009 5.06514 15.9879 5.13026 15.9627 5.191C15.9375 5.25175 15.9006 5.30692 15.854 5.35337L11.854 9.35337C11.7601 9.44725 11.6328 9.5 11.5 9.5C11.3672 9.5 11.2399 9.44725 11.146 9.35337C11.0521 9.25948 10.9994 9.13214 10.9994 8.99937C10.9994 8.86659 11.0521 8.73925 11.146 8.64537L14.293 5.49937L0.5 5.49937C0.367392 5.49937 0.240215 5.44669 0.146446 5.35292C0.0526782 5.25915 -1.90932e-07 5.13198 -1.96729e-07 4.99937Z" fill="#1A1611"/>
</svg>
