<svg width="16" height="16" viewBox="0 0 16 16" fill="none" xmlns="http://www.w3.org/2000/svg">
<path d="M10.5326 4.75073H5.5747L4.98828 3.12181L11.0276 3.10645L10.5326 4.75073Z" fill="#1A1611"/>
<path d="M8.88281 12.4638C8.89804 12.3101 8.90566 12.1718 8.92089 12.0259C8.95897 11.6494 8.99705 11.2729 9.04274 10.8964C9.11129 10.3816 9.17983 9.86677 9.25599 9.35197C9.35499 8.6835 9.48446 8.03039 9.64439 7.37729C9.7434 6.98542 9.29407 6.77028 9.46161 6.40147C9.73578 5.7791 11.952 4.6112 11.9748 4.60352C11.9139 4.68803 10.1623 6.17097 10.406 8.60666C10.2841 9.2905 9.92617 9.37502 9.85763 10.0742C9.81955 10.4584 9.78909 10.8503 9.7434 11.2344C9.70532 11.5802 9.64439 11.9183 9.5987 12.2564C9.5987 12.2794 9.57585 12.3101 9.56062 12.3101C9.33976 12.3639 9.1189 12.41 8.88281 12.4638Z" fill="#F6C971"/>
<path fill-rule="evenodd" clip-rule="evenodd" d="M13.8337 8.44085C14.1815 8.5194 14.3763 8.56341 14.6772 8.79297C14.8143 8.90054 15.2027 8.87749 15.317 8.83138C15.3665 8.81217 15.416 8.79489 15.4655 8.7776C15.515 8.76031 15.5645 8.74302 15.614 8.72381C15.7892 8.65466 15.911 8.53172 15.9567 8.33963C16.0024 8.15523 16.01 7.97082 15.9795 7.77873C15.9795 7.75848 15.9619 7.73229 15.9473 7.7106C15.9453 7.7076 15.9433 7.70469 15.9415 7.7019C15.8593 7.6043 15.7772 7.50715 15.6952 7.41012C15.4349 7.10228 15.1757 6.79569 14.921 6.48021C14.9048 6.4601 14.889 6.44067 14.8737 6.42176C14.7018 6.20938 14.5835 6.06322 14.4716 5.781C14.4564 5.74259 14.1518 5.27389 13.8776 5.19705C13.5893 5.09041 13.4344 5.06328 13.3039 5.04041C13.2275 5.02704 13.1595 5.01512 13.0779 4.9896C13.1084 4.65152 13.1465 4.4748 13.3216 4.13672C13.3129 4.13965 13.3053 4.14147 13.2988 4.14302C13.2883 4.14552 13.2806 4.14734 13.2759 4.15209C12.5753 4.50553 11.9584 4.97423 11.4862 5.6427C11.1435 6.13445 10.816 6.6262 10.6409 7.21015C10.3515 8.14755 10.2144 9.11568 10.1002 10.0915C10.0545 10.491 10.0164 10.8906 9.98592 11.2901C9.95546 11.7203 9.92501 12.1582 9.89455 12.5961L9.89453 12.5963C9.89453 12.6578 9.90976 12.6962 9.94784 12.7423C10.0392 12.8422 10.1287 12.944 10.2182 13.0458C10.3077 13.1476 10.3972 13.2494 10.4886 13.3493C10.4903 13.3507 10.4921 13.352 10.4939 13.3534C10.5234 13.3758 10.5593 13.4031 10.5952 13.4031C11.2958 13.407 11.9356 13.4108 12.5753 13.4146C13.215 13.4185 13.8547 13.4223 14.5554 13.4262C14.5859 13.4262 14.6163 13.4262 14.6392 13.4108C14.8219 13.2879 14.9743 13.1342 15.1113 12.9575C15.1045 12.946 15.0984 12.9352 15.0925 12.9249C15.0787 12.9007 15.0665 12.8791 15.0504 12.8576C14.8247 12.4895 14.6252 12.1387 14.4351 11.7873C13.4444 11.6474 12.2928 11.2873 12.2873 11.2818C12.301 11.2809 12.3428 11.2828 12.4095 11.2857C12.6733 11.2973 13.3266 11.3258 14.1641 11.2754C14.0222 11.0023 13.8811 10.7236 13.7331 10.4315C13.6075 10.1836 13.477 9.92589 13.3369 9.65353C13.215 9.44607 13.1236 9.21557 13.0322 8.98506L13.0322 8.98506C12.9637 8.81602 12.9408 8.62393 13.0475 8.45489C12.6591 8.11681 12.3697 7.54054 12.4154 7.21783C12.4306 7.24857 12.4458 7.27162 12.4611 7.29467C12.5829 7.49444 12.6971 7.69421 12.8114 7.89399C12.8799 8.01692 13.0627 8.19365 13.1846 8.24743C13.3597 8.31658 13.611 8.39342 13.7938 8.43184C13.8073 8.4349 13.8206 8.4379 13.8337 8.44085Z" fill="#F6C971"/>
<path d="M7.13107 12.3876C7.11584 12.234 7.10823 12.0957 7.09299 11.9497C7.05492 11.5732 7.01684 11.1967 6.97114 10.8202C6.9026 10.3054 6.83406 9.79059 6.7579 9.27579C6.65889 8.60732 6.52943 7.95422 6.36949 7.30112C6.27049 6.90925 6.71982 6.69411 6.55227 6.3253C6.27811 5.70293 4.06191 4.53503 4.03906 4.52734C4.09999 4.61186 5.85162 6.09479 5.60792 8.53049C5.72977 9.21433 6.08771 9.29884 6.15625 9.99805C6.19433 10.3822 6.22479 10.7741 6.27049 11.1583C6.30857 11.504 6.36949 11.8421 6.41519 12.1802C6.41519 12.2032 6.43804 12.234 6.45327 12.234C6.68174 12.2954 6.9026 12.3415 7.13107 12.3876Z" fill="#F6C971"/>
<path fill-rule="evenodd" clip-rule="evenodd" d="M2.17935 8.37042C1.83157 8.44897 1.63674 8.49297 1.33581 8.72253C1.19872 8.8301 0.810319 8.80705 0.680851 8.75326C0.631348 8.73405 0.581846 8.71677 0.532343 8.69948C0.482841 8.68219 0.433338 8.6649 0.383836 8.64569C0.208673 8.57654 0.08682 8.4536 0.0411253 8.26151C-0.00456942 8.07711 -0.0121853 7.8927 0.0182779 7.70061C0.0182779 7.68036 0.0359177 7.65417 0.0505311 7.63248C0.0525488 7.62948 0.0545088 7.62657 0.0563568 7.62378C0.138495 7.52617 0.220633 7.42901 0.302666 7.33198C0.562906 7.02414 0.82209 6.71756 1.07687 6.40209C1.09306 6.38198 1.1088 6.36255 1.1241 6.34363C1.296 6.13126 1.41431 5.98509 1.5262 5.70288C1.54143 5.66446 1.84607 5.19576 2.12023 5.11893C2.40851 5.01229 2.56342 4.98515 2.69396 4.96229C2.77033 4.94891 2.83837 4.937 2.91989 4.91147C2.88943 4.57339 2.85135 4.39667 2.67619 4.05859C2.68491 4.06153 2.69253 4.06334 2.69903 4.06489C2.70956 4.0674 2.71717 4.06921 2.72188 4.07396C3.42253 4.42741 4.04703 4.8961 4.51159 5.56458C4.8543 6.05633 5.18178 6.54807 5.35694 7.13203C5.64634 8.06942 5.78343 9.03756 5.91289 10.0211C5.95859 10.4206 5.99667 10.8201 6.02713 11.2197C6.05759 11.65 6.08806 12.0879 6.11852 12.5259C6.11852 12.5874 6.10329 12.6258 6.06521 12.6719C5.97382 12.7718 5.88433 12.8736 5.79485 12.9754C5.70536 13.0772 5.61588 13.179 5.52449 13.2789C5.52272 13.2802 5.52093 13.2816 5.51911 13.283C5.48961 13.3054 5.45374 13.3327 5.41787 13.3327C4.71722 13.3365 4.07749 13.3404 3.43776 13.3442C2.79804 13.348 2.15831 13.3519 1.45766 13.3557C1.4272 13.3557 1.39673 13.3557 1.37389 13.3404C1.19111 13.2174 1.03879 13.0638 0.901709 12.887C0.908527 12.8756 0.914667 12.8648 0.920534 12.8545C0.934326 12.8303 0.946606 12.8087 0.962635 12.7871C1.18972 12.4168 1.39026 12.0641 1.58138 11.7106C2.57326 11.5713 3.72906 11.2099 3.73459 11.2043C3.72096 11.2035 3.67915 11.2053 3.61246 11.2082C3.34806 11.2198 2.69265 11.2485 1.85277 11.1977C1.99337 10.9268 2.1333 10.6506 2.27997 10.361C2.40555 10.1131 2.53608 9.85546 2.67619 9.58309C2.79804 9.37563 2.88943 9.14513 2.98082 8.91462C3.04936 8.74558 3.07221 8.55349 2.96559 8.38445C3.35399 8.04637 3.64339 7.4701 3.5977 7.14739C3.58247 7.17813 3.56724 7.20117 3.55201 7.22422L3.552 7.22423C3.43015 7.424 3.31592 7.62376 3.20169 7.82353L3.20168 7.82355C3.13313 7.94649 2.95035 8.12321 2.8285 8.17699C2.65334 8.24615 2.40202 8.32298 2.21924 8.3614C2.20572 8.36446 2.19243 8.36746 2.17935 8.37042Z" fill="#F6C971"/>
<path d="M12.7533 11.6424C12.7076 11.3504 12.7457 11.043 12.6619 10.7741C12.4106 9.92891 11.3749 6.8939 11.2226 6.40984C11.0931 6.01029 10.9941 5.64148 10.8418 5.28803C10.7047 4.96532 10.7428 4.6964 10.8646 4.37369C11.0246 3.94341 11.2606 3.2903 11.3063 3.15968C11.3063 2.98296 11.3063 2.82929 11.3063 2.66793C11.2378 2.66793 11.1769 2.66793 11.1159 2.66793C10.5067 2.66793 8.36664 2.67562 7.75738 2.66025C7.50606 2.65256 7.26236 2.6833 7.04911 2.85234C6.73687 3.09821 6.43224 3.09821 6.11237 2.8677C5.96006 2.76013 5.77728 2.67562 5.60973 2.67562C4.90146 2.65256 5.71635 2.66793 5.00808 2.66793C4.95477 2.66793 4.90146 2.66793 4.84815 2.66793C4.84815 2.84465 4.84815 2.99064 4.84815 3.15968C4.88623 3.27493 5.22894 4.17391 5.39649 4.63493C5.43457 4.73481 5.44218 4.86544 5.4041 4.96532C4.86338 6.62498 4.33028 8.29231 3.75148 9.9366C3.50016 10.6512 3.33261 11.3657 3.40115 12.1264C3.40115 12.1341 3.40115 12.1418 3.40115 12.1495C3.37831 12.2801 3.08129 12.8948 3.1803 12.9716C3.84287 13.4787 5.72397 14.055 5.83059 14.0627C7.33851 14.1856 8.82359 14.1702 10.3239 14.055C10.4305 14.0473 12.1669 13.5863 12.7229 13.2175C13.1417 12.9409 12.8295 12.1341 12.7533 11.6424ZM5.34318 3.152C5.45741 3.13663 5.34318 3.152 5.34318 3.152C5.34318 3.152 5.75443 3.19041 5.9829 3.32872C6.1733 3.44397 6.37892 3.61301 6.56932 3.61301C6.77495 3.61301 6.97296 3.43629 7.17097 3.32104C7.39182 3.19041 7.61268 3.14431 7.84877 3.152C8.32857 3.15968 10.3315 3.15968 10.8189 3.15968C10.6666 3.55154 10.5143 3.92036 10.3696 4.29685C10.3163 4.42747 10.263 4.48126 10.1107 4.48126C8.75505 4.47357 7.39944 4.47357 6.03621 4.48126C5.89151 4.48126 5.82297 4.43515 5.77728 4.29685C5.64781 3.92036 5.49549 3.54386 5.34318 3.152ZM4.69584 8.64576C5.07663 7.48554 5.46503 6.333 5.84582 5.17278C5.89913 5.01911 5.95244 4.95764 6.11999 4.95764C7.4299 4.96532 8.73982 4.96532 10.0497 4.95764C10.1792 4.95764 10.2401 4.98837 10.2782 5.11899C10.9027 7.01684 11.5348 8.91468 12.1669 10.8125C12.1745 10.8279 12.1745 10.8509 12.1822 10.8894C9.44047 10.8894 6.7064 10.8894 3.94949 10.8894C4.20081 10.1441 4.45213 9.39106 4.69584 8.64576ZM12.2583 12.0112C12.2583 12.0496 12.205 12.1034 12.1669 12.1341C11.5805 12.5874 11.0017 13.0408 10.4153 13.4864C10.3544 13.5325 10.2554 13.5632 10.1792 13.5632C8.78551 13.5709 7.38421 13.5709 5.99052 13.5632C5.92198 13.5632 5.87628 13.5632 5.80012 13.5325C5.34318 13.3327 4.07896 12.2724 3.90379 12.088C3.90379 11.8575 3.90379 11.65 3.90379 11.4272C6.69117 11.4272 9.47093 11.4272 12.2735 11.4272C12.2659 11.6193 12.2659 11.8191 12.2583 12.0112Z" fill="#F6C971"/>
<path d="M12.3393 11.582C12.3317 11.5436 10.9761 7.02561 10.344 5.10471C10.2983 4.97409 10.2374 4.94336 10.1079 4.94336C8.76755 4.95104 7.43478 4.95104 6.09441 4.94336C5.91924 4.94336 5.86593 5.00483 5.81262 5.1585C5.42422 6.3264 5.0282 7.50199 4.63979 8.66989C4.38847 9.42288 4.07622 10.8367 3.8249 11.605C3.80206 12.043 3.83252 12.6346 3.83252 12.6346C4.49509 13.1264 5.88878 13.6335 5.95732 13.6335C7.38147 13.6335 8.80562 13.6335 10.2374 13.6335C10.3212 13.6335 11.6768 13.2032 12.2708 12.7422C12.3089 12.7115 12.3622 12.6654 12.3698 12.6193C12.3622 12.6193 12.3546 11.7817 12.3393 11.582Z" fill="#1A1611"/>
<path d="M10.6589 5.31162C10.5904 5.15027 10.5295 4.9966 10.4609 4.81987C10.6133 4.73535 10.758 4.65083 10.9027 4.58937C11.3596 4.38191 11.6871 4.04383 11.8927 3.57513C12.2354 2.80678 12.799 2.29198 13.591 2C13.6443 2.16136 13.7053 2.31503 13.7662 2.49943C13.6215 2.57627 13.4996 2.64542 13.3702 2.70689C12.9437 2.91435 12.6314 3.22937 12.441 3.67502C12.0907 4.48948 11.4967 5.01965 10.6589 5.31162Z" fill="#F6C971"/>
<path d="M5.5802 10.8672C5.7863 10.8672 5.95338 10.6987 5.95338 10.4908C5.95338 10.2828 5.7863 10.1143 5.5802 10.1143C5.37411 10.1143 5.20703 10.2828 5.20703 10.4908C5.20703 10.6987 5.37411 10.8672 5.5802 10.8672Z" fill="#F6C971"/>
<path d="M4.48839 10.6518C4.73655 10.6518 4.93772 10.4488 4.93772 10.1984C4.93772 9.94808 4.73655 9.74512 4.48839 9.74512C4.24023 9.74512 4.03906 9.94808 4.03906 10.1984C4.03906 10.4488 4.24023 10.6518 4.48839 10.6518Z" fill="#F6C971"/>
<path d="M6.76574 11.1586C7.0139 11.1586 7.21507 10.9557 7.21507 10.7053C7.21507 10.4549 7.0139 10.252 6.76574 10.252C6.51758 10.252 6.31641 10.4549 6.31641 10.7053C6.31641 10.9557 6.51758 11.1586 6.76574 11.1586Z" fill="#F6C971"/>
<path d="M8.06067 11.1514C8.26677 11.1514 8.43385 10.9829 8.43385 10.7749C8.43385 10.567 8.26677 10.3984 8.06067 10.3984C7.85457 10.3984 7.6875 10.567 7.6875 10.7749C7.6875 10.9829 7.85457 11.1514 8.06067 11.1514Z" fill="#F6C971"/>
<path d="M9.39464 11.1586C9.6428 11.1586 9.84398 10.9557 9.84398 10.7053C9.84398 10.4549 9.6428 10.252 9.39464 10.252C9.14648 10.252 8.94531 10.4549 8.94531 10.7053C8.94531 10.9557 9.14648 11.1586 9.39464 11.1586Z" fill="#F6C971"/>
<path d="M10.5841 10.8672C10.7902 10.8672 10.9573 10.6987 10.9573 10.4908C10.9573 10.2828 10.7902 10.1143 10.5841 10.1143C10.378 10.1143 10.2109 10.2828 10.2109 10.4908C10.2109 10.6987 10.378 10.8672 10.5841 10.8672Z" fill="#F6C971"/>
<path d="M11.6954 10.6518C11.9436 10.6518 12.1448 10.4488 12.1448 10.1984C12.1448 9.94808 11.9436 9.74512 11.6954 9.74512C11.4473 9.74512 11.2461 9.94808 11.2461 10.1984C11.2461 10.4488 11.4473 10.6518 11.6954 10.6518Z" fill="#F6C971"/>
<path d="M4.14583 11.6816C4.36875 11.6816 4.54946 11.4993 4.54946 11.2744C4.54946 11.0495 4.36875 10.8672 4.14583 10.8672C3.9229 10.8672 3.74219 11.0495 3.74219 11.2744C3.74219 11.4993 3.9229 11.6816 4.14583 11.6816Z" fill="#F6C971"/>
<path d="M5.35831 12.0877C5.6317 12.0877 5.85333 11.8641 5.85333 11.5883C5.85333 11.3125 5.6317 11.0889 5.35831 11.0889C5.08491 11.0889 4.86328 11.3125 4.86328 11.5883C4.86328 11.8641 5.08491 12.0877 5.35831 12.0877Z" fill="#F6C971"/>
<path d="M8.06143 12.4569C8.33483 12.4569 8.55646 12.2333 8.55646 11.9574C8.55646 11.6816 8.33483 11.458 8.06143 11.458C7.78804 11.458 7.56641 11.6816 7.56641 11.9574C7.56641 12.2333 7.78804 12.4569 8.06143 12.4569Z" fill="#F6C971"/>
<path d="M6.65364 12.251C6.87656 12.251 7.05727 12.0687 7.05727 11.8438C7.05727 11.6188 6.87656 11.4365 6.65364 11.4365C6.43071 11.4365 6.25 11.6188 6.25 11.8438C6.25 12.0687 6.43071 12.251 6.65364 12.251Z" fill="#F6C971"/>
<path d="M10.7372 12.0877C11.0106 12.0877 11.2322 11.8641 11.2322 11.5883C11.2322 11.3125 11.0106 11.0889 10.7372 11.0889C10.4638 11.0889 10.2422 11.3125 10.2422 11.5883C10.2422 11.8641 10.4638 12.0877 10.7372 12.0877Z" fill="#F6C971"/>
<path d="M9.46223 12.251C9.68515 12.251 9.86587 12.0687 9.86587 11.8438C9.86587 11.6188 9.68515 11.4365 9.46223 11.4365C9.23931 11.4365 9.05859 11.6188 9.05859 11.8438C9.05859 12.0687 9.23931 12.251 9.46223 12.251Z" fill="#F6C971"/>
<path d="M12.0599 11.6816C12.2828 11.6816 12.4635 11.4993 12.4635 11.2744C12.4635 11.0495 12.2828 10.8672 12.0599 10.8672C11.837 10.8672 11.6562 11.0495 11.6562 11.2744C11.6562 11.4993 11.837 11.6816 12.0599 11.6816Z" fill="#F6C971"/>
<path d="M4.71751 9.38462C4.91099 9.38462 5.06784 9.22638 5.06784 9.03118C5.06784 8.83598 4.91099 8.67773 4.71751 8.67773C4.52403 8.67773 4.36719 8.83598 4.36719 9.03118C4.36719 9.22638 4.52403 9.38462 4.71751 9.38462Z" fill="#F6C971"/>
<path d="M5.82101 9.7297C6.05655 9.7297 6.24749 9.53706 6.24749 9.29942C6.24749 9.06178 6.05655 8.86914 5.82101 8.86914C5.58547 8.86914 5.39453 9.06178 5.39453 9.29942C5.39453 9.53706 5.58547 9.7297 5.82101 9.7297Z" fill="#F6C971"/>
<path d="M8.0593 10.0442C8.29484 10.0442 8.48578 9.85151 8.48578 9.61387C8.48578 9.37624 8.29484 9.18359 8.0593 9.18359C7.82376 9.18359 7.63281 9.37624 7.63281 9.61387C7.63281 9.85151 7.82376 10.0442 8.0593 10.0442Z" fill="#F6C971"/>
<path d="M6.94017 9.87486C7.13365 9.87486 7.2905 9.71662 7.2905 9.52142C7.2905 9.32621 7.13365 9.16797 6.94017 9.16797C6.74669 9.16797 6.58984 9.32621 6.58984 9.52142C6.58984 9.71662 6.74669 9.87486 6.94017 9.87486Z" fill="#F6C971"/>
<path d="M10.4187 9.7297C10.6542 9.7297 10.8452 9.53706 10.8452 9.29942C10.8452 9.06178 10.6542 8.86914 10.4187 8.86914C10.1831 8.86914 9.99219 9.06178 9.99219 9.29942C9.99219 9.53706 10.1831 9.7297 10.4187 9.7297Z" fill="#F6C971"/>
<path d="M9.28001 9.87486C9.47349 9.87486 9.63034 9.71662 9.63034 9.52142C9.63034 9.32621 9.47349 9.16797 9.28001 9.16797C9.08653 9.16797 8.92969 9.32621 8.92969 9.52142C8.92969 9.71662 9.08653 9.87486 9.28001 9.87486Z" fill="#F6C971"/>
<path d="M11.4714 9.38462C11.6649 9.38462 11.8217 9.22638 11.8217 9.03118C11.8217 8.83598 11.6649 8.67773 11.4714 8.67773C11.2779 8.67773 11.1211 8.83598 11.1211 9.03118C11.1211 9.22638 11.2779 9.38462 11.4714 9.38462Z" fill="#F6C971"/>
<path d="M5.11204 13.0028C5.30552 13.0028 5.46237 12.8445 5.46237 12.6493C5.46237 12.4541 5.30552 12.2959 5.11204 12.2959C4.91856 12.2959 4.76172 12.4541 4.76172 12.6493C4.76172 12.8445 4.91856 13.0028 5.11204 13.0028Z" fill="#F6C971"/>
<path d="M8.06126 13.3641C8.25474 13.3641 8.41159 13.2059 8.41159 13.0107C8.41159 12.8155 8.25474 12.6572 8.06126 12.6572C7.86778 12.6572 7.71094 12.8155 7.71094 13.0107C7.71094 13.2059 7.86778 13.3641 8.06126 13.3641Z" fill="#F6C971"/>
<path d="M10.9324 13.0419C11.1258 13.0419 11.2827 12.8836 11.2827 12.6884C11.2827 12.4932 11.1258 12.335 10.9324 12.335C10.7389 12.335 10.582 12.4932 10.582 12.6884C10.582 12.8836 10.7389 13.0419 10.9324 13.0419Z" fill="#F6C971"/>
<path d="M7.07492 8.87716C7.31046 8.87716 7.50141 8.68452 7.50141 8.44688C7.50141 8.20924 7.31046 8.0166 7.07492 8.0166C6.83938 8.0166 6.64844 8.20924 6.64844 8.44688C6.64844 8.68452 6.83938 8.87716 7.07492 8.87716Z" fill="#F6C971"/>
<path d="M9.09055 8.87716C9.32609 8.87716 9.51704 8.68452 9.51704 8.44688C9.51704 8.20924 9.32609 8.0166 9.09055 8.0166C8.85501 8.0166 8.66406 8.20924 8.66406 8.44688C8.66406 8.68452 8.85501 8.87716 9.09055 8.87716Z" fill="#F6C971"/>
<path d="M11.0593 8.43185C11.2948 8.43185 11.4858 8.23921 11.4858 8.00157C11.4858 7.76393 11.2948 7.57129 11.0593 7.57129C10.8238 7.57129 10.6328 7.76393 10.6328 8.00157C10.6328 8.23921 10.8238 8.43185 11.0593 8.43185Z" fill="#F6C971"/>
<path d="M5.02414 8.43185C5.25968 8.43185 5.45062 8.23921 5.45062 8.00157C5.45062 7.76393 5.25968 7.57129 5.02414 7.57129C4.7886 7.57129 4.59766 7.76393 4.59766 8.00157C4.59766 8.23921 4.7886 8.43185 5.02414 8.43185Z" fill="#F6C971"/>
</svg>
