<svg width="57" height="73" viewBox="0 0 57 73" fill="none" xmlns="http://www.w3.org/2000/svg">
<g clip-path="url(#clip0_1297_4825)">
<path d="M34.3359 6.95565H21.7992L20.3164 2.83671L35.5876 2.79785L34.3359 6.95565Z" fill="#1A1611"/>
<path d="M33.0664 26.4618C33.1049 26.0732 33.1242 25.7235 33.1627 25.3543C33.259 24.4023 33.3553 23.4503 33.4708 22.4983C33.6441 21.1965 33.8175 19.8948 34.01 18.5931C34.2604 16.9027 34.5878 15.2513 34.9922 13.5998C35.2425 12.6089 34.1063 12.0649 34.53 11.1323C35.2233 9.55857 40.8272 6.60537 40.885 6.58594C40.7309 6.79966 36.3017 10.5495 36.9179 16.7084C36.6098 18.4376 35.7047 18.6513 35.5314 20.4194C35.4351 21.3908 35.3581 22.3817 35.2425 23.3532C35.1462 24.2275 34.9922 25.0823 34.8766 25.9372C34.8766 25.9955 34.8188 26.0732 34.7803 26.0732C34.2219 26.2092 33.6634 26.3258 33.0664 26.4618Z" fill="#F6C971"/>
<path fill-rule="evenodd" clip-rule="evenodd" d="M45.5896 16.285C46.4691 16.4836 46.9617 16.5949 47.7227 17.1753C48.0693 17.4473 49.0514 17.389 49.3403 17.2725C49.4655 17.2239 49.5907 17.1802 49.7158 17.1365C49.841 17.0928 49.9662 17.049 50.0914 17.0005C50.5343 16.8256 50.8424 16.5147 50.9579 16.029C51.0735 15.5627 51.0927 15.0964 51.0157 14.6107C51.0157 14.5595 50.9711 14.4933 50.9342 14.4384C50.9291 14.4308 50.9241 14.4235 50.9194 14.4164C50.7117 14.1696 50.504 13.924 50.2966 13.6786C49.6386 12.9002 48.9832 12.1249 48.3389 11.3272C48.298 11.2764 48.2582 11.2272 48.2195 11.1794C47.7848 10.6424 47.4856 10.2728 47.2027 9.55917C47.1642 9.46202 46.3939 8.27686 45.7006 8.08257C44.9717 7.81291 44.58 7.7443 44.2499 7.68649C44.0568 7.65266 43.8847 7.62253 43.6786 7.55798C43.7556 6.70311 43.8519 6.25624 44.2948 5.40137C44.2728 5.40879 44.2535 5.41338 44.237 5.41729C44.2104 5.42363 44.1912 5.42822 44.1793 5.44023C42.4076 6.33396 40.8477 7.51913 39.6537 9.20945C38.7871 10.4529 37.9591 11.6964 37.5161 13.173C36.7844 15.5433 36.4377 17.9913 36.1489 20.4588C36.0333 21.4691 35.937 22.4794 35.86 23.4897C35.783 24.5775 35.706 25.6847 35.629 26.7919L35.6289 26.7927C35.6289 26.9481 35.6674 27.0453 35.7637 27.1618C35.9948 27.4144 36.2211 27.6718 36.4473 27.9293C36.6736 28.1867 36.8999 28.4441 37.131 28.6967C37.1355 28.7001 37.14 28.7035 37.1446 28.707C37.2192 28.7638 37.3099 28.8327 37.4006 28.8327C39.1723 28.8424 40.7899 28.8521 42.4076 28.8619C44.0252 28.8716 45.6428 28.8813 47.4145 28.891C47.4916 28.891 47.5686 28.891 47.6264 28.8521C48.0886 28.5413 48.4737 28.1527 48.8203 27.7058C48.8031 27.6768 48.7876 27.6496 48.7727 27.6235C48.7379 27.5623 48.7068 27.5078 48.6663 27.4533C48.096 26.5233 47.5919 25.6372 47.1116 24.7496C44.6055 24.3962 41.6897 23.4845 41.6758 23.4704C41.7102 23.4684 41.816 23.473 41.9846 23.4804C42.6523 23.5096 44.3061 23.582 46.4259 23.4542C46.0669 22.7629 45.7097 22.0579 45.3352 21.3186C45.0177 20.6917 44.6876 20.0401 44.3333 19.3514C44.0252 18.8268 43.7941 18.2439 43.563 17.6611C43.3897 17.2336 43.3319 16.7479 43.6015 16.3205C42.6194 15.4656 41.8876 14.0084 42.0032 13.1924C42.0417 13.2701 42.0802 13.3284 42.1187 13.3867C42.4268 13.8918 42.7157 14.397 43.0046 14.9021C43.1779 15.213 43.6401 15.6599 43.9482 15.7959C44.3911 15.9707 45.0266 16.165 45.4888 16.2622C45.523 16.2699 45.5566 16.2775 45.5896 16.285Z" fill="#F6C971"/>
<path d="M22.8576 26.2684C22.8191 25.8799 22.7999 25.5301 22.7614 25.161C22.6651 24.209 22.5688 23.2569 22.4532 22.3049C22.2799 21.0032 22.1066 19.7014 21.914 18.3997C21.6637 16.7094 21.3363 15.0579 20.9319 13.4064C20.6815 12.4156 21.8177 11.8716 21.3941 10.939C20.7008 9.36521 15.0968 6.41201 15.0391 6.39258C15.1931 6.6063 19.6224 10.3561 19.0061 16.5151C19.3142 18.2443 20.2194 18.458 20.3927 20.226C20.489 21.1975 20.566 22.1883 20.6815 23.1598C20.7778 24.0341 20.9319 24.889 21.0474 25.7438C21.0474 25.8021 21.1052 25.8799 21.1437 25.8799C21.7214 26.0353 22.2799 26.1519 22.8576 26.2684Z" fill="#F6C971"/>
<path fill-rule="evenodd" clip-rule="evenodd" d="M10.335 16.1101C9.45559 16.3087 8.96295 16.42 8.20199 17.0004C7.85536 17.2724 6.87322 17.2142 6.54584 17.0781C6.42067 17.0296 6.29549 16.9859 6.17031 16.9421C6.04514 16.8984 5.91997 16.8547 5.7948 16.8061C5.35188 16.6313 5.04376 16.3204 4.92821 15.8347C4.81266 15.3684 4.79341 14.9021 4.87044 14.4164C4.87044 14.3652 4.91504 14.2989 4.952 14.2441C4.9571 14.2365 4.96205 14.2292 4.96672 14.2221C5.17442 13.9753 5.38212 13.7296 5.58956 13.4842C6.24761 12.7058 6.90299 11.9306 7.54724 11.1329C7.58818 11.082 7.62796 11.0329 7.66667 10.9851C8.10134 10.4481 8.40051 10.0785 8.68343 9.36484C8.72195 9.26769 9.49225 8.08252 10.1855 7.88823C10.9145 7.61857 11.3062 7.54997 11.6363 7.49215C11.8294 7.45833 12.0014 7.4282 12.2076 7.36365C12.1305 6.50877 12.0342 6.06191 11.5913 5.20703C11.6134 5.21445 11.6326 5.21904 11.6491 5.22296C11.6757 5.22929 11.695 5.23388 11.7069 5.24589C13.4786 6.13962 15.0577 7.32479 16.2324 9.01512C17.099 10.2586 17.9271 11.502 18.37 12.9786C19.1018 15.349 19.4484 17.797 19.7758 20.2839C19.8913 21.2942 19.9876 22.3045 20.0647 23.3149C20.1417 24.4029 20.2187 25.5103 20.2957 26.6178C20.2957 26.7732 20.2572 26.8704 20.1609 26.9869C19.9298 27.2395 19.7036 27.497 19.4773 27.7544C19.251 28.0118 19.0247 28.2693 18.7937 28.5218C18.7892 28.5252 18.7847 28.5287 18.7801 28.5322C18.7055 28.5889 18.6147 28.6578 18.524 28.6578C16.7524 28.6675 15.1347 28.6773 13.5171 28.687C11.8994 28.6967 10.2818 28.7064 8.51012 28.7161C8.43309 28.7161 8.35606 28.7161 8.29828 28.6773C7.8361 28.3664 7.45095 27.9778 7.10431 27.5309C7.12156 27.502 7.13708 27.4747 7.15192 27.4486C7.18679 27.3874 7.21784 27.3329 7.25837 27.2784C7.83255 26.3421 8.3396 25.4502 8.82286 24.5565C11.3309 24.204 14.2535 23.2902 14.2674 23.2761C14.233 23.274 14.1272 23.2787 13.9586 23.2861C13.29 23.3153 11.6328 23.3879 9.5091 23.2594C9.86465 22.5745 10.2185 21.8759 10.5894 21.1437C10.907 20.5168 11.237 19.8652 11.5913 19.1765C11.8994 18.6519 12.1305 18.069 12.3616 17.4862L12.3616 17.4862C12.5349 17.0587 12.5927 16.573 12.3231 16.1456C13.3052 15.2907 14.037 13.8335 13.9215 13.0175C13.883 13.0952 13.8445 13.1535 13.806 13.2118L13.8059 13.2118C13.4978 13.7169 13.209 14.2221 12.9201 14.7272C12.7468 15.0381 12.2846 15.485 11.9765 15.621C11.5336 15.7958 10.8981 15.9901 10.4359 16.0873C10.4017 16.095 10.3681 16.1026 10.335 16.1101Z" fill="#F6C971"/>
<path d="M41.1767 64.446C41.1767 62.8723 41.196 61.3374 41.1767 59.8219C41.1574 59.1807 40.9841 58.559 40.4449 58.1121C40.8301 57.9567 43.6609 57.9373 44.2772 58.0733C43.5454 58.7144 43.4876 59.5693 43.4876 60.4436C43.4876 63.4746 43.4876 66.486 43.4876 69.517C43.4876 69.6724 43.4876 69.8084 43.4876 69.9638C43.5069 70.7021 43.6609 71.3822 44.2387 71.8873C44.2194 71.9262 44.2194 71.9456 44.2001 71.9456C44.1809 71.965 44.1809 71.9845 44.1616 71.9845C42.9099 71.9845 41.6774 71.9845 40.3486 71.9845C40.4449 71.8679 40.5219 71.7707 40.599 71.6736C40.9841 71.2656 41.1189 70.741 41.1189 70.2164C41.1574 68.7981 41.1382 67.3603 41.1382 65.942C41.1382 65.9032 41.0997 65.8837 41.0804 65.8255C39.7516 65.8255 38.3844 65.8255 37.0171 65.8255C36.9978 65.9032 36.9593 65.9615 36.9593 66.0392C36.9593 67.3798 36.9593 68.701 36.9786 70.0416C36.9786 70.7604 37.1711 71.421 37.8451 71.9845C37.0941 72.0039 36.4586 72.0039 35.8038 72.0039C35.1683 72.0039 34.5328 72.0039 33.8203 72.0039C33.9359 71.8679 34.0321 71.7707 34.0899 71.6736C34.244 71.3627 34.4558 71.0519 34.5328 70.7216C34.6291 70.3524 34.6484 69.9444 34.6484 69.5558C34.6484 66.5055 34.6484 63.4746 34.6484 60.4242C34.6484 60.3076 34.6484 60.191 34.6484 60.0939C34.6099 59.3556 34.5136 58.6367 33.8973 58.1121C34.3018 57.9761 36.7475 57.9373 37.6718 58.0344C37.6718 58.0733 37.7103 58.1121 37.6911 58.1316C37.1711 58.6173 36.9786 59.2196 36.9786 59.8996C36.9786 61.3956 36.9786 62.8917 36.9786 64.446C38.4036 64.446 39.7709 64.446 41.1767 64.446Z" fill="#F6C971"/>
<path d="M28.4251 71.9844C29.1569 71.4792 29.4265 71.2461 29.1376 70.022C29.0028 69.4586 28.8488 68.8952 28.6947 68.3317C27.3659 68.3317 26.0757 68.3317 24.7277 68.3317C24.5736 69.1089 24.3618 69.886 24.2462 70.6826C24.1692 71.2266 24.381 71.4986 25.0743 71.9649C23.9766 71.9649 22.9367 71.9649 21.7812 71.9649C22.6478 71.5181 22.8404 70.7409 23.033 69.9638C23.8226 66.9134 24.6121 63.863 25.4017 60.8127C25.4594 60.599 25.498 60.3658 25.5365 60.1521C25.6713 59.4332 25.7291 58.7338 25.2861 58.0926C25.7098 57.9566 27.6548 57.9372 28.4059 58.0343C28.5599 58.5589 28.714 59.1224 28.868 59.6664C29.8309 63.1053 30.7745 66.5248 31.7374 69.9638C31.9492 70.7603 32.2189 71.4986 32.9892 71.9649C31.4871 71.9844 29.985 71.9844 28.4251 71.9844ZM28.3288 67.166C28.2518 66.4082 26.7882 60.9293 26.5571 60.5601C26.0372 62.775 25.5172 64.9511 24.9973 67.166C26.1527 67.166 27.2119 67.166 28.3288 67.166Z" fill="#F6C971"/>
<path d="M16.3323 59.3359C15.5234 59.2582 14.7724 59.2582 14.0599 59.4331C13.6362 59.5302 13.3473 59.8216 13.1355 60.2102C12.9429 60.5599 12.7696 60.9291 12.5 61.2788C12.6926 60.2102 12.8852 59.1416 13.0777 58.0342C16.0241 58.0342 18.9513 58.0342 21.9362 58.0342C22.1288 59.1028 22.3214 60.1908 22.5139 61.2594C22.4754 61.2788 22.4562 61.2788 22.4176 61.2982C22.3214 61.0845 22.2251 60.8708 22.1288 60.6571C21.7821 59.8216 21.2044 59.2971 20.2608 59.3165C19.7408 59.3165 19.2209 59.3165 18.6624 59.3165C18.6432 59.4719 18.6046 59.6079 18.6046 59.7439C18.6046 63.0469 18.6046 66.3498 18.6046 69.6721C18.6046 70.0024 18.6432 70.3522 18.7009 70.6825C18.778 71.1682 19.0091 71.5956 19.5097 71.9842C18.1039 71.9842 16.8329 71.9842 15.4849 71.9842C16.0626 71.4596 16.2552 70.8185 16.2745 70.119C16.2745 69.8859 16.2937 69.6721 16.2937 69.439C16.2937 69.2058 16.2937 68.9921 16.2937 68.759C16.2937 65.8446 16.2937 62.9303 16.2937 60.0159C16.3323 59.8022 16.3323 59.5885 16.3323 59.3359Z" fill="#F6C971"/>
<path d="M44.9074 51.6029C44.7534 52.6132 44.9844 53.5069 45.6199 54.3812C44.2527 54.3812 43.0587 54.2647 42.038 53.4875C41.0174 52.7103 40.69 51.5446 40.2663 50.3789C39.8812 50.4177 39.496 50.4372 39.0531 50.476C39.1109 51.7778 38.7643 53.1572 39.9775 54.2452C38.5139 54.2452 37.1274 54.2452 35.6445 54.2452C36.4919 53.5264 36.5496 52.6132 36.5496 51.6806C36.5496 48.3194 36.5496 44.997 36.5496 41.6358C36.5496 41.461 36.5496 41.2667 36.5304 41.0918C36.4919 40.3729 36.3571 39.6735 35.683 39.1295C35.8756 39.0906 35.9719 39.0518 36.0875 39.0518C37.4162 39.0712 38.7643 39.0518 40.093 39.11C40.6515 39.1295 41.2292 39.246 41.7684 39.4015C43.4053 39.8872 44.426 40.9752 44.8111 42.6656C45.1192 44.0062 44.8882 45.3468 44.5608 46.6679C44.1949 48.1057 43.5979 49.1937 42.2306 49.8349C42.1343 49.8737 42.0573 49.9126 41.961 49.9709C41.9225 49.9903 41.9032 50.0291 41.8455 50.0874C42.481 51.2726 43.5979 51.5058 44.9074 51.6029ZM39.1109 48.9994C39.3035 48.98 39.4768 48.9994 39.6308 48.9606C41.0559 48.7468 41.6529 47.8337 42.0188 46.4931C42.3076 45.3468 42.558 44.2004 42.3462 43.0347C42.0188 41.2472 40.9211 40.3924 39.1301 40.5089C39.1109 43.3456 39.1109 46.1045 39.1109 48.9994Z" fill="#F6C971"/>
<path d="M25.0533 54.1675C25.5155 53.8178 25.7081 53.3321 25.7466 52.7881C25.7851 52.3412 25.8236 51.8943 25.8236 51.4475C25.8236 48.2611 25.8236 45.0748 25.8236 41.9078C25.8236 41.5387 25.8044 41.1695 25.7658 40.8004C25.6888 40.1786 25.5733 39.5958 24.957 39.1295C25.1496 39.0906 25.2266 39.0518 25.3229 39.0518C26.5939 39.0712 27.8649 39.0712 29.1359 39.11C29.887 39.1295 30.5995 39.3626 31.2928 39.6735C33.9503 40.8975 33.5074 44.589 31.6009 45.7936C31.5239 45.8519 31.4468 45.9102 31.2928 46.0268C31.5046 46.1045 31.6587 46.1628 31.8127 46.2211C33.1993 46.7845 34.1814 47.8337 34.3162 49.3297C34.3547 49.8543 34.3547 50.3983 34.2777 50.9035C34.0658 52.1275 33.3533 53.0018 32.2364 53.5458C31.4083 53.9538 30.5225 54.1675 29.6174 54.2064C28.1153 54.2647 26.6132 54.2841 25.0918 54.323C25.0726 54.2647 25.0726 54.2064 25.0533 54.1675ZM28.3656 53.0406C29.0204 53.0601 29.5788 52.9629 30.1373 52.7298C30.8884 52.4383 31.3698 51.8943 31.6009 51.1172C31.832 50.3206 31.8512 49.5046 31.6394 48.708C31.4853 48.1834 30.9846 47.7365 30.5225 47.4451C29.8099 47.0177 29.2322 46.9011 28.3849 46.9399C28.3656 48.9994 28.3656 50.9812 28.3656 53.0406ZM28.3464 45.6576C29.444 45.7353 29.9447 45.269 30.2336 44.3364C30.5225 43.4233 30.7535 42.4907 30.4839 41.5581C30.1951 40.5866 29.367 40.1398 28.3464 40.3924C28.3464 42.1215 28.3464 43.8702 28.3464 45.6576Z" fill="#F6C971"/>
<path d="M23.8568 46.6479C23.8568 48.1828 23.6064 49.6594 22.9324 51.0389C22.1428 52.6515 20.9296 53.7978 19.1579 54.2058C16.693 54.7887 14.4206 53.9726 13.034 51.1749C12.5526 50.2229 12.283 49.1931 12.1482 48.144C11.9171 46.1816 12.0519 44.2776 12.8607 42.4513C13.6888 40.6055 15.0368 39.3621 17.0589 39.0318C19.7742 38.6043 21.6229 39.5952 22.8939 42.121C23.6257 43.5587 23.876 45.0742 23.8568 46.6479ZM21.2763 46.3759C21.2377 45.9679 21.2185 45.2685 21.1222 44.5885C20.9874 43.5976 20.7178 42.6456 20.1978 41.7713C19.1002 39.9449 16.9048 39.9061 15.7686 41.7324C15.5568 42.0821 15.3834 42.4513 15.2294 42.8204C14.8827 43.6753 14.7672 44.5885 14.6902 45.5016C14.5746 47.0365 14.6709 48.552 15.1138 50.048C15.3449 50.864 15.7108 51.6023 16.3463 52.1852C17.5595 53.3121 18.9846 53.1955 19.9667 51.8549C20.3134 51.3886 20.5637 50.8252 20.7563 50.2811C21.18 49.1154 21.2377 47.8914 21.2763 46.3759Z" fill="#F6C971"/>
<path d="M0.480469 54.2655C1.30854 53.5855 1.44335 52.7695 1.44335 51.9146C1.4626 48.398 1.44335 44.8813 1.44335 41.3841C1.44335 41.3064 1.44335 41.2287 1.42409 41.1315C1.36632 40.3932 1.28929 39.6744 0.576757 39.0915C0.78859 39.0721 0.904135 39.0332 1.01968 39.0332C2.29068 39.0526 3.56168 39.0332 4.85193 39.0915C5.44892 39.1109 6.06516 39.2469 6.64289 39.4024C8.70345 40.0047 9.97444 41.423 10.5329 43.4824C11.0721 45.5225 11.0721 47.5819 10.4366 49.5831C9.70484 51.934 8.14498 53.4883 5.71852 54.0518C5.35263 54.1295 4.96748 54.2266 4.58233 54.2266C3.25356 54.2849 1.94404 54.2655 0.480469 54.2655ZM3.96609 52.8278C5.31412 52.8666 6.43105 52.478 7.16284 51.3511C7.49022 50.8654 7.74057 50.302 7.89463 49.7386C8.41458 47.7179 8.41458 45.6585 8.01017 43.6184C7.87537 42.9773 7.64428 42.375 7.25913 41.831C6.5466 40.8401 5.10228 40.2767 3.98534 40.5681C3.96609 44.6287 3.96609 48.6894 3.96609 52.8278Z" fill="#F6C971"/>
<path d="M45.4062 39.0712C46.6772 39.0712 47.929 39.0712 49.277 39.0712C48.7571 39.6929 48.7956 40.3341 49.0459 40.9558C49.7392 42.7627 50.2399 44.5696 50.9332 46.3765C50.9524 46.4154 50.9909 46.4348 51.0487 46.5125C51.1257 46.3959 51.2028 46.2794 51.2413 46.1628C51.9153 44.4336 52.8012 42.7044 53.4752 40.9752C53.5329 40.8004 53.61 40.6255 53.6677 40.4506C53.8218 39.9649 53.8988 39.4792 53.2826 39.0518C54.361 39.0518 55.2661 39.0518 56.306 39.0518C55.2469 39.7123 54.958 40.7615 54.5728 41.7524C53.764 43.8119 52.7434 45.8908 51.9538 47.9697C51.8575 48.2417 51.9923 50.612 51.9923 51.4863C51.9923 51.7389 51.9923 51.972 52.0309 52.2246C52.0886 52.9435 52.2619 53.6429 52.8589 54.1092C52.8397 54.1481 52.8397 54.187 52.8204 54.187C52.8012 54.2064 52.8012 54.2258 52.7819 54.2258C51.4339 54.2258 50.0666 54.2258 48.7186 54.2258C48.7186 54.187 48.68 54.1287 48.6993 54.1092C49.2385 53.6041 49.4503 52.9629 49.4696 52.2441C49.4889 51.0395 49.5081 49.8349 49.5081 48.6303C49.5081 48.436 49.2385 48.2223 49.1615 48.0474C48.2949 45.8131 47.6401 43.5593 46.7735 41.325C46.4269 40.5478 46.061 39.7512 45.4062 39.0712Z" fill="#F6C971"/>
<path d="M50.6836 39.9649C51.011 38.8575 51.3383 37.7695 51.6657 36.6426C52.3205 36.6426 52.9367 36.6426 53.63 36.6426C53.553 36.798 53.5144 36.9534 53.4374 37.07C52.8982 37.9055 52.359 38.7409 51.8198 39.5569C51.4539 40.1204 51.4539 40.1204 50.6836 39.9649Z" fill="#F6C971"/>
<path d="M39.9608 24.3832C39.8453 23.6449 39.9415 22.8677 39.7297 22.1877C39.0942 20.0505 36.4752 12.376 36.09 11.152C35.7627 10.1417 35.5123 9.20912 35.1272 8.31538C34.7805 7.49937 34.8768 6.81935 35.1849 6.00333C35.5893 4.91531 36.1863 3.26385 36.3019 2.93355C36.3019 2.48669 36.3019 2.09811 36.3019 1.6901C36.1286 1.6901 35.9745 1.6901 35.8204 1.6901C34.2798 1.6901 28.8684 1.70953 27.3278 1.67067C26.6923 1.65124 26.0761 1.72896 25.5369 2.15639C24.7473 2.77812 23.977 2.77812 23.1682 2.19525C22.7831 1.92325 22.3209 1.70953 21.8972 1.70953C20.1063 1.65124 22.1668 1.6901 20.3759 1.6901C20.2411 1.6901 20.1063 1.6901 19.9715 1.6901C19.9715 2.13697 19.9715 2.50612 19.9715 2.93355C20.0677 3.22499 20.9343 5.49818 21.358 6.66392C21.4543 6.9165 21.4735 7.24679 21.3773 7.49937C20.01 11.696 18.6619 15.9121 17.1984 20.0699C16.5629 21.8768 16.1392 23.6837 16.3125 25.6072C16.3125 25.6266 16.3125 25.646 16.3125 25.6655C16.2547 25.9958 15.5037 27.5501 15.754 27.7444C17.4295 29.0267 22.1861 30.4839 22.4557 30.5033C26.2687 30.8142 30.0239 30.7753 33.8176 30.4839C34.0873 30.4644 38.478 29.2987 39.8838 28.3661C40.9429 27.6667 40.1534 25.6266 39.9608 24.3832ZM21.2232 2.91413C21.5121 2.87527 21.2232 2.91413 21.2232 2.91413C21.2232 2.91413 22.2631 3.01127 22.8408 3.36099C23.3223 3.65243 23.8422 4.07986 24.3237 4.07986C24.8436 4.07986 25.3443 3.633 25.845 3.34156C26.4035 3.01127 26.962 2.8947 27.5589 2.91413C28.7722 2.93355 33.8369 2.93355 35.0694 2.93355C34.6842 3.92443 34.2991 4.85702 33.9332 5.80904C33.7984 6.13934 33.6636 6.27534 33.2784 6.27534C29.8506 6.25591 26.4227 6.25591 22.9756 6.27534C22.6097 6.27534 22.4364 6.15877 22.3209 5.80904C21.9935 4.85702 21.6083 3.905 21.2232 2.91413ZM19.5863 16.8059C20.5492 13.8721 21.5313 10.9577 22.4942 8.02395C22.629 7.63537 22.7638 7.47994 23.1875 7.47994C26.4998 7.49937 29.8121 7.49937 33.1244 7.47994C33.4517 7.47994 33.6058 7.55765 33.7021 7.88795C35.2812 12.6869 36.8796 17.4859 38.478 22.2848C38.4972 22.3237 38.4972 22.382 38.5165 22.4791C31.5838 22.4791 24.6703 22.4791 17.6991 22.4791C18.3346 20.5945 18.9701 18.6905 19.5863 16.8059ZM38.7091 25.3158C38.7091 25.4129 38.5743 25.5489 38.478 25.6266C36.9951 26.7729 35.5316 27.9192 34.0487 29.0461C33.8947 29.1627 33.6443 29.2404 33.4517 29.2404C29.9276 29.2598 26.3842 29.2598 22.8601 29.2404C22.6868 29.2404 22.5712 29.2404 22.3787 29.1627C21.2232 28.6575 18.0264 25.9763 17.5835 25.51C17.5835 24.9272 17.5835 24.4026 17.5835 23.8391C24.6318 23.8391 31.6608 23.8391 38.7476 23.8391C38.7283 24.3249 38.7283 24.83 38.7091 25.3158Z" fill="#F6C971"/>
<path d="M38.9186 24.228C38.8994 24.1309 35.4715 12.7067 33.8731 7.84942C33.7576 7.51912 33.6035 7.44141 33.2762 7.44141C29.8868 7.46084 26.5168 7.46084 23.1274 7.44141C22.6845 7.44141 22.5497 7.59684 22.4149 7.98542C21.4328 10.9386 20.4314 13.9113 19.4492 16.8645C18.8137 18.7685 18.0242 22.3434 17.3887 24.2863C17.3309 25.3938 17.4079 26.8898 17.4079 26.8898C19.0833 28.1333 22.6075 29.4156 22.7808 29.4156C26.382 29.4156 29.9831 29.4156 33.6035 29.4156C33.8154 29.4156 37.2432 28.3276 38.7453 27.1618C38.8416 27.0841 38.9764 26.9675 38.9957 26.851C38.9764 26.851 38.9571 24.7332 38.9186 24.228Z" fill="#1A1611"/>
<path d="M34.6648 8.37389C34.4914 7.96588 34.3374 7.5773 34.1641 7.13044C34.5492 6.91672 34.9151 6.703 35.281 6.54757C36.4365 6.02298 37.2645 5.16811 37.7845 3.98294C38.6511 2.04004 40.0761 0.738301 42.0789 0C42.2137 0.408009 42.3678 0.796588 42.5218 1.26288C42.1559 1.45717 41.8478 1.63203 41.5204 1.78747C40.442 2.31205 39.6525 3.10864 39.171 4.23552C38.2852 6.29499 36.7831 7.63559 34.6648 8.37389Z" fill="#F6C971"/>
<path d="M21.8186 22.4216C22.3398 22.4216 22.7622 21.9954 22.7622 21.4696C22.7622 20.9438 22.3398 20.5176 21.8186 20.5176C21.2975 20.5176 20.875 20.9438 20.875 21.4696C20.875 21.9954 21.2975 22.4216 21.8186 22.4216Z" fill="#F6C971"/>
<path d="M19.0659 21.8766C19.6934 21.8766 20.2021 21.3634 20.2021 20.7303C20.2021 20.0972 19.6934 19.584 19.0659 19.584C18.4384 19.584 17.9297 20.0972 17.9297 20.7303C17.9297 21.3634 18.4384 21.8766 19.0659 21.8766Z" fill="#F6C971"/>
<path d="M24.8237 23.1598C25.4512 23.1598 25.9599 22.6466 25.9599 22.0135C25.9599 21.3804 25.4512 20.8672 24.8237 20.8672C24.1962 20.8672 23.6875 21.3804 23.6875 22.0135C23.6875 22.6466 24.1962 23.1598 24.8237 23.1598Z" fill="#F6C971"/>
<path d="M28.096 23.1404C28.6171 23.1404 29.0396 22.7141 29.0396 22.1883C29.0396 21.6626 28.6171 21.2363 28.096 21.2363C27.5748 21.2363 27.1523 21.6626 27.1523 22.1883C27.1523 22.7141 27.5748 23.1404 28.096 23.1404Z" fill="#F6C971"/>
<path d="M31.4682 23.1598C32.0957 23.1598 32.6044 22.6466 32.6044 22.0135C32.6044 21.3804 32.0957 20.8672 31.4682 20.8672C30.8407 20.8672 30.332 21.3804 30.332 22.0135C30.332 22.6466 30.8407 23.1598 31.4682 23.1598Z" fill="#F6C971"/>
<path d="M34.471 22.4206C34.9921 22.4206 35.4146 21.9944 35.4146 21.4686C35.4146 20.9428 34.9921 20.5166 34.471 20.5166C33.9498 20.5166 33.5273 20.9428 33.5273 21.4686C33.5273 21.9944 33.9498 22.4206 34.471 22.4206Z" fill="#F6C971"/>
<path d="M37.2807 21.8766C37.9082 21.8766 38.4169 21.3634 38.4169 20.7303C38.4169 20.0972 37.9082 19.584 37.2807 19.584C36.6532 19.584 36.1445 20.0972 36.1445 20.7303C36.1445 21.3634 36.6532 21.8766 37.2807 21.8766Z" fill="#F6C971"/>
<path d="M18.1964 24.4804C18.7601 24.4804 19.2171 24.0193 19.2171 23.4506C19.2171 22.8819 18.7601 22.4209 18.1964 22.4209C17.6327 22.4209 17.1758 22.8819 17.1758 23.4506C17.1758 24.0193 17.6327 24.4804 18.1964 24.4804Z" fill="#F6C971"/>
<path d="M21.2596 25.5101C21.9509 25.5101 22.5113 24.9447 22.5113 24.2473C22.5113 23.5498 21.9509 22.9844 21.2596 22.9844C20.5682 22.9844 20.0078 23.5498 20.0078 24.2473C20.0078 24.9447 20.5682 25.5101 21.2596 25.5101Z" fill="#F6C971"/>
<path d="M28.0955 26.4428C28.7868 26.4428 29.3472 25.8773 29.3472 25.1799C29.3472 24.4824 28.7868 23.917 28.0955 23.917C27.4042 23.917 26.8438 24.4824 26.8438 25.1799C26.8438 25.8773 27.4042 26.4428 28.0955 26.4428Z" fill="#F6C971"/>
<path d="M24.5363 25.9188C25.1 25.9188 25.5569 25.4578 25.5569 24.8891C25.5569 24.3204 25.1 23.8594 24.5363 23.8594C23.9726 23.8594 23.5156 24.3204 23.5156 24.8891C23.5156 25.4578 23.9726 25.9188 24.5363 25.9188Z" fill="#F6C971"/>
<path d="M34.8572 25.5101C35.5485 25.5101 36.1089 24.9447 36.1089 24.2473C36.1089 23.5498 35.5485 22.9844 34.8572 22.9844C34.1659 22.9844 33.6055 23.5498 33.6055 24.2473C33.6055 24.9447 34.1659 25.5101 34.8572 25.5101Z" fill="#F6C971"/>
<path d="M31.6378 25.9188C32.2015 25.9188 32.6585 25.4578 32.6585 24.8891C32.6585 24.3204 32.2015 23.8594 31.6378 23.8594C31.0741 23.8594 30.6172 24.3204 30.6172 24.8891C30.6172 25.4578 31.0741 25.9188 31.6378 25.9188Z" fill="#F6C971"/>
<path d="M38.2081 24.4804C38.7718 24.4804 39.2288 24.0193 39.2288 23.4506C39.2288 22.8819 38.7718 22.4209 38.2081 22.4209C37.6445 22.4209 37.1875 22.8819 37.1875 23.4506C37.1875 24.0193 37.6445 24.4804 38.2081 24.4804Z" fill="#F6C971"/>
<path d="M19.6437 18.6713C20.1329 18.6713 20.5295 18.2711 20.5295 17.7775C20.5295 17.2839 20.1329 16.8838 19.6437 16.8838C19.1544 16.8838 18.7578 17.2839 18.7578 17.7775C18.7578 18.2711 19.1544 18.6713 19.6437 18.6713Z" fill="#F6C971"/>
<path d="M22.4339 19.5452C23.0295 19.5452 23.5123 19.0581 23.5123 18.4572C23.5123 17.8563 23.0295 17.3691 22.4339 17.3691C21.8383 17.3691 21.3555 17.8563 21.3555 18.4572C21.3555 19.0581 21.8383 19.5452 22.4339 19.5452Z" fill="#F6C971"/>
<path d="M28.098 20.3421C28.6936 20.3421 29.1764 19.8549 29.1764 19.254C29.1764 18.6531 28.6936 18.166 28.098 18.166C27.5024 18.166 27.0195 18.6531 27.0195 19.254C27.0195 19.8549 27.5024 20.3421 28.098 20.3421Z" fill="#F6C971"/>
<path d="M25.2648 19.9144C25.754 19.9144 26.1506 19.5143 26.1506 19.0207C26.1506 18.5271 25.754 18.127 25.2648 18.127C24.7755 18.127 24.3789 18.5271 24.3789 19.0207C24.3789 19.5143 24.7755 19.9144 25.2648 19.9144Z" fill="#F6C971"/>
<path d="M34.0472 19.5452C34.6428 19.5452 35.1256 19.0581 35.1256 18.4572C35.1256 17.8563 34.6428 17.3691 34.0472 17.3691C33.4516 17.3691 32.9688 17.8563 32.9688 18.4572C32.9688 19.0581 33.4516 19.5452 34.0472 19.5452Z" fill="#F6C971"/>
<path d="M31.1788 19.9144C31.6681 19.9144 32.0647 19.5143 32.0647 19.0207C32.0647 18.5271 31.6681 18.127 31.1788 18.127C30.6896 18.127 30.293 18.5271 30.293 19.0207C30.293 19.5143 30.6896 19.9144 31.1788 19.9144Z" fill="#F6C971"/>
<path d="M36.7218 18.6713C37.211 18.6713 37.6076 18.2711 37.6076 17.7775C37.6076 17.2839 37.211 16.8838 36.7218 16.8838C36.2325 16.8838 35.8359 17.2839 35.8359 17.7775C35.8359 18.2711 36.2325 18.6713 36.7218 18.6713Z" fill="#F6C971"/>
<path d="M20.6437 27.8226C21.1329 27.8226 21.5295 27.4225 21.5295 26.9289C21.5295 26.4353 21.1329 26.0352 20.6437 26.0352C20.1544 26.0352 19.7578 26.4353 19.7578 26.9289C19.7578 27.4225 20.1544 27.8226 20.6437 27.8226Z" fill="#F6C971"/>
<path d="M28.0968 28.7357C28.586 28.7357 28.9826 28.3356 28.9826 27.842C28.9826 27.3484 28.586 26.9482 28.0968 26.9482C27.6075 26.9482 27.2109 27.3484 27.2109 27.842C27.2109 28.3356 27.6075 28.7357 28.0968 28.7357Z" fill="#F6C971"/>
<path d="M35.3546 27.9193C35.8438 27.9193 36.2404 27.5192 36.2404 27.0256C36.2404 26.532 35.8438 26.1318 35.3546 26.1318C34.8654 26.1318 34.4688 26.532 34.4688 27.0256C34.4688 27.5192 34.8654 27.9193 35.3546 27.9193Z" fill="#F6C971"/>
<path d="M25.594 17.3889C26.1896 17.3889 26.6725 16.9018 26.6725 16.3009C26.6725 15.7 26.1896 15.2129 25.594 15.2129C24.9985 15.2129 24.5156 15.7 24.5156 16.3009C24.5156 16.9018 24.9985 17.3889 25.594 17.3889Z" fill="#F6C971"/>
<path d="M30.6956 17.3889C31.2912 17.3889 31.7741 16.9018 31.7741 16.3009C31.7741 15.7 31.2912 15.2129 30.6956 15.2129C30.1 15.2129 29.6172 15.7 29.6172 16.3009C29.6172 16.9018 30.1 17.3889 30.6956 17.3889Z" fill="#F6C971"/>
<path d="M35.6839 16.262C36.2795 16.262 36.7623 15.7749 36.7623 15.174C36.7623 14.5731 36.2795 14.0859 35.6839 14.0859C35.0883 14.0859 34.6055 14.5731 34.6055 15.174C34.6055 15.7749 35.0883 16.262 35.6839 16.262Z" fill="#F6C971"/>
<path d="M20.4144 16.262C21.0099 16.262 21.4928 15.7749 21.4928 15.174C21.4928 14.5731 21.0099 14.0859 20.4144 14.0859C19.8188 14.0859 19.3359 14.5731 19.3359 15.174C19.3359 15.7749 19.8188 16.262 20.4144 16.262Z" fill="#F6C971"/>
</g>
<defs>
<clipPath id="clip0_1297_4825">
<rect width="56.3091" height="72.0233" fill="white"/>
</clipPath>
</defs>
</svg>
