<svg width="69" height="69" viewBox="0 0 69 69" fill="none" xmlns="http://www.w3.org/2000/svg">
<circle cx="34.5" cy="34.5" r="34.5" fill="url(#paint0_linear_1297_5391)"/>
<path d="M50.4878 22.0998C50.4413 29.069 48.2298 43.3697 39.7553 44.8192C29.1622 46.6312 19.9629 44.192 18.4297 23.1452M50.4878 22.0998C46.7941 24.9107 35.2114 29.055 18.4297 23.1452M50.4878 22.0998C44.2388 19.5445 29.0785 16.1761 18.4297 23.1452" stroke="#CDA470"/>
<path d="M19.4766 25.5841C20.2896 31.322 23.658 42.9233 30.6272 43.4251M20.9401 26.281C22.2642 31.7866 26.2645 42.8257 31.6726 42.9372M24.0762 30.4625C24.0762 31.02 26.1669 41.6131 32.2998 42.101M47.0744 26.281C47.0047 26.9082 44.4958 42.101 39.7568 42.5191M48.6076 24.6084C48.2127 30.4392 46.1266 42.3658 40.9415 43.4251M29.6515 30.4625C29.6283 31.3917 29.7909 33.5428 30.6272 34.7137M29.5359 29.2687C29.3732 28.7112 29.4202 28.2921 29.5359 27.4016" stroke="#CDA470"/>
<path d="M46.3783 40.0229C51.791 40.8824 58.3683 42.8793 48.5 45.4997M23.2407 40.0229C18.7805 40.6501 11 43.4997 16.5 44.9997M48.6781 38.9775C52.5576 39.4654 60.2887 40.9428 60.1772 42.95C60.0512 45.2169 57.877 47.0286 48.0509 47.614M22.6832 38.9775C17.8977 39.1169 8.46614 40.3156 9.02367 43.9953C9.3567 46.1934 13.7325 47.3138 20.5 47.7587M48.0509 47.614C47.002 47.6765 45.866 47.7251 44.636 47.7587C37.977 47.9406 27.8942 48.2447 20.5 47.7587M48.0509 47.614C47.6327 47.638 41.268 50.4214 37.8532 50.282C34.4383 50.1427 23.7058 51.4378 20.5 47.7587" stroke="#CDA470"/>
<path d="M50.5584 24.5387C52.6956 23.9347 57.1651 23.6606 57.9456 27.3961C58.9213 32.0654 55.7852 37.4316 46.5859 39.6618M47.9798 36.5953C49.8614 36.5256 53.8896 35.759 54.9489 33.2501C56.273 30.114 56.5518 27.3264 54.9489 26.8385C53.6666 26.4483 51.2088 27.0476 50.1402 27.3961" stroke="#CDA470"/>
<path d="M21.0078 24.0509C32.1584 21.0402 43.4949 22.4712 47.7693 23.563C46.724 24.2135 43.0861 25.6399 36.8975 26.1416C30.7089 26.6434 23.7258 24.9569 21.0078 24.0509Z" fill="#CDA470"/>
<defs>
<linearGradient id="paint0_linear_1297_5391" x1="6" y1="1.22986e-05" x2="79.5184" y2="28.9138" gradientUnits="userSpaceOnUse">
<stop stop-color="#2E2721"/>
<stop offset="1" stop-color="#201F21"/>
</linearGradient>
</defs>
</svg>
