<svg width="69" height="69" viewBox="0 0 69 69" fill="none" xmlns="http://www.w3.org/2000/svg">
<circle cx="34.5" cy="34.5" r="34.5" fill="url(#paint0_linear_1297_5399)"/>
<path d="M43.4948 23C43.4005 30.4971 43.8662 46.6063 43.0175 47.9077C41.9566 49.5344 27.4575 57.5973 18.1923 47.5541L17.4961 23C17.2603 25.4283 18.0933 32.5882 27.8819 33.2672C40.1177 34.1159 43.4948 28.0923 43.4948 23Z" stroke="#CDA470"/>
<path d="M43.555 30.9161C43.5921 31.5397 43.0105 32.5712 41.4961 32.4999M43.555 33.4999C43.3694 33.886 42.476 34.371 41.4961 34.0146M43.555 35.544C43.4437 35.7816 42.976 36.1855 41.9961 35.9004M43.555 37.326C43.221 37.4745 42.4415 37.6824 41.9961 37.326M43.555 38.5734C43.3323 38.811 42.7533 39.1793 42.2188 38.7516M43.3323 40.5336C42.9983 40.6524 42.2633 40.8187 41.9961 40.5336M43.3323 41.9592C43.0354 42.0483 42.3524 42.173 41.9961 41.9592M43.1096 43.8303C42.9983 43.9788 42.6197 44.1867 41.9961 43.8303" stroke="#CDA470"/>
<path d="M31.5769 30.5148C22.1278 31.7596 18.1152 27.0256 17.2901 24.503C16.7243 23.23 17.3184 20.1604 24.2213 18.0669C32.85 15.45 41.408 18.0669 42.964 21.3911C44.52 24.7152 43.3883 28.9588 31.5769 30.5148Z" stroke="#CDA470"/>
<path d="M39.7676 45.0783C39.9091 45.1491 41.0407 44.8662 41.3236 45.5027C41.6065 46.1393 41.1115 46.6471 40.6164 46.6407M39.3433 47.2709C37.3611 48.4547 33.5514 49.8715 29.1586 49.7759M19.3275 46.6343C22.6004 48.8712 26.0276 49.7077 29.1586 49.7759M19.6812 40.5518C19.4041 40.5703 18.9273 40.4643 18.7883 39.9821C18.697 39.6657 18.7893 39.3116 19.0066 39.0642C19.2716 38.7625 19.726 38.5672 20.3884 38.9958C21.3503 39.6182 21.4022 40.6225 21.3079 41.0469C21.3765 40.8215 21.4369 40.4634 21.4232 40.0567M20.7421 36.2375C20.7421 35.5538 20.4875 34.342 19.469 34.9644C18.1959 35.7424 19.6812 37.1569 20.7421 38.2886C21.238 38.8176 21.4039 39.485 21.4232 40.0567M22.0152 36.9447C21.7322 36.6584 21.4069 36.0313 22.3688 35.8131C23.5711 35.5404 23.6419 37.0155 23.4297 37.7935C23.3909 37.9358 23.2962 38.1055 23.166 38.2886M21.4232 40.0567C21.8845 39.6749 22.7269 38.9059 23.166 38.2886M23.166 38.2886C24.1969 38.0764 26.1032 38.133 25.4808 40.0567M23.5711 42.2493C23.9719 42.0607 24.6886 41.4996 24.3491 40.764C23.9248 39.8445 22.0152 40.0567 22.0152 41.8249C22.0152 43.5931 23.2882 43.7345 23.9955 43.6638C24.7028 43.5931 25.693 43.4516 25.8344 42.2493M21.025 45.0783C21.2607 45.0312 21.7322 45.0501 21.7322 45.5027C21.7322 46.0685 20.8835 46.4929 20.1763 46.1393C19.469 45.7856 18.691 44.7954 19.3275 43.6638C19.9641 42.5322 21.5201 42.5322 22.0152 43.098C22.3224 43.4491 25.1175 46.0475 27.3904 48.1465M29.1586 49.7759C28.6614 49.3188 28.0478 48.7535 27.3904 48.1465M29.1586 49.7759C27.8148 48.7445 27.6026 46.6343 28.4513 45.7856C29.3 44.9369 28.3099 42.6029 26.7539 43.6638C25.5091 44.5125 26.2352 45.432 26.7539 45.7856M29.1586 49.7759C30.3148 49.4056 32.3504 48.5121 33.6603 47.2709M29.1586 49.7759C29.3734 49.3426 29.71 48.5309 29.8721 47.766M27.3904 48.1465C26.6536 47.9562 25.3095 47.446 24.3491 46.6407M23.4297 45.5027C23.6261 45.9305 23.9553 46.3104 24.3491 46.6407M24.3491 46.6407C23.8197 46.6766 22.8418 46.9519 23.166 47.766C23.4901 48.5801 24.0898 48.3589 24.3491 48.1465M31.1389 45.5027C32.4935 45.2198 31.9169 43.3102 30.6439 43.6638C29.3708 44.0174 29.7244 45.5027 29.9366 46.6407C29.9959 46.9586 29.9591 47.3556 29.8721 47.766M34.8167 45.5027C34.6473 46.1465 34.2201 46.7404 33.6603 47.2709M33.6603 47.2709C34.6823 47.2237 36.3444 47.4689 34.8167 48.8269M29.8721 47.766C31.1196 46.3514 34.2651 43.4375 36.8678 43.098C40.1213 42.6736 40.5456 46.7051 37.858 46.988C35.1704 47.2709 37.0093 43.946 37.858 45.7856M32.0584 42.2493C32.3885 43.098 33.4305 44.5408 34.9582 43.5224C36.8678 42.2493 36.4435 40.2689 34.9582 40.0567C33.4729 39.8445 32.3077 41.4005 33.8973 42.2493M31.8462 37.7935C31.7048 37.817 31.3936 38.0622 31.2804 38.8544C31.1389 39.8445 31.0682 42.6736 29.583 42.7444C28.1988 42.8103 27.5517 42.6305 26.8975 39.8577C26.7963 39.4286 26.805 38.9706 26.658 38.5549C26.5394 38.2196 26.2955 37.8923 25.8344 37.7935M28.8757 41.3298V39.4909M30.2902 38.0764L30.0796 38.287C29.8604 38.5062 29.4949 38.4675 29.3265 38.2073L29.2876 38.1471C29.103 37.8619 28.6799 37.8804 28.5209 38.1806V38.1806C28.3809 38.4451 28.0249 38.4987 27.8133 38.287L27.6026 38.0764" stroke="#CDA470"/>
<path d="M16.296 41.2362C16.1074 41.024 15.6311 40.6845 15.2351 41.024C14.74 41.4483 14.8107 42.58 16.0131 42.8629C17.2154 43.1458 18.1349 42.3678 17.9934 41.024C17.852 39.6802 15.3058 37.0633 10.5671 34.1635C10.0013 33.5976 9.23742 32.2397 10.7085 31.3344C11.1782 31.0454 11.5786 30.8717 11.9346 30.7686M7.4551 31.9709C7.47868 31.853 7.38438 31.5607 6.81856 31.3344C6.11129 31.0515 5.6162 31.6173 6.3942 32.8196C7.17219 34.022 8.79891 32.8904 9.0111 31.6173C9.18492 30.5743 8.45683 29.1516 9.54908 28.0102M11.9346 30.7686C12.9725 30.4679 13.6325 30.767 14.5278 30.5564C15.7302 30.2735 17.1447 29.9906 17.5691 29.1418C17.9934 28.2931 16.6496 25.2519 15.2351 26.1713C13.8205 27.0908 14.0327 28.3639 15.0229 29.8491C14.3628 28.5996 12.5474 26.3411 10.5671 27.3029C10.1197 27.5203 9.79006 27.7584 9.54908 28.0102M11.9346 30.7686C11.3188 30.2499 9.97946 28.9721 9.54908 28.0102" stroke="#CDA470"/>
<path d="M18.9173 24.5539C18.8931 23.5231 20.1954 21.2169 25.5982 20.2388C32.3518 19.0162 40.6304 20.8861 41.9375 23.4751M24.498 24.0002L35.2456 23.5687" stroke="#CDA470" stroke-linecap="round"/>
<path d="M39.4375 25.5654C35.0951 27.3202 25.2861 29.7769 20.7891 25.5654" stroke="#CDA470" stroke-linecap="round"/>
<path d="M45.5286 53.3385C45.328 53.2399 44.8368 53.6904 44.6163 53.928C44.1165 53.9314 44.6516 53.0113 44.9817 52.5508C45.8396 44.0473 48.8728 42.9433 51.4723 39.3431C54.0717 35.7428 64.2753 35.4643 60.3331 43.6975C56.391 51.9307 45.7794 53.4617 45.5286 53.3385Z" stroke="#CDA470"/>
<path d="M47.9356 51.8228C47.7724 52.3238 46.2884 52.57 45.5668 52.6305C45.5111 52.6031 45.4982 52.3477 45.8926 51.5452C46.3855 50.5421 45.969 50.545 46.3755 49.0843C46.7006 47.9157 46.8944 47.8171 46.9506 47.9139C47.351 47.5918 48.076 46.8065 47.7722 46.2421C47.4684 45.6776 48.2207 44.8366 48.6348 44.4866C48.6314 43.9867 49.3757 43.1902 49.7483 42.8544C49.6428 42.0554 50.5571 41.3492 51.0275 41.0961C51.3504 39.5942 52.8196 39.2092 53.5138 39.2044C54.2929 37.4079 55.3031 38.9422 55.6332 38.4817C55.9633 38.0212 57.0017 37.5975 57.7541 37.9672C58.5064 38.337 57.9695 39.0072 58.386 39.0043C58.8026 39.0014 60.0579 39.8259 60.1429 40.0752C60.228 40.3246 60.1501 41.1166 59.6529 41.4949C59.1556 41.8732 59.7875 42.9102 59.255 44.2052C58.7224 45.5002 57.392 45.8842 56.5193 46.1818C55.6466 46.4794 55.6142 47.8126 55.4102 48.4389C55.2062 49.0651 53.3758 49.4109 52.5824 49.1248C51.7889 48.8387 51.5043 49.8404 50.3879 51.0561C49.2716 52.2718 48.1395 51.1965 47.9356 51.8228Z" stroke="#CDA470"/>
<path d="M46.6844 51.4133C47.0935 51.0204 47.8161 50.2295 48.0959 49.6162M47.8275 48.0313C47.9394 48.1555 48.1727 48.5538 48.2101 49.1534C48.2183 49.2851 48.1747 49.4436 48.0959 49.6162M48.0959 49.6162C48.6894 49.4581 49.8774 49.3085 49.882 49.975M48.4155 48.7354C49.2032 48.1885 50.897 47.3604 51.3709 48.4235C51.8447 49.4866 51.5174 49.5332 51.2945 49.4236M50.8183 46.8026C49.9134 46.4617 48.6508 45.3846 50.8393 43.8033M53.0299 47.3705C52.2346 46.8067 51.159 45.4756 53.2195 44.6617C53.3428 44.4109 53.8754 43.1159 52.4571 42.8341C52.4996 42.6367 52.5223 42.3815 52.4917 42.1301M53.0299 47.3705C53.6093 46.825 54.9614 45.9743 55.7345 46.9354M53.0299 47.3705C52.9081 47.8296 52.7982 48.8134 53.3332 49.0763M51.1961 41.1764C52.108 41.056 52.4254 41.5842 52.4917 42.1301M52.5588 39.4593C53.296 39.6487 54.6554 40.2615 54.1954 41.1976C53.7353 42.1337 52.8679 42.2093 52.4917 42.1301" stroke="#CDA470"/>
<path d="M56.1297 38.1025C56.1043 38.4359 55.9371 39.1702 55.4725 39.44M55.4725 39.44C54.9692 38.9436 53.9565 39.0755 53.513 39.2035M55.4725 39.44C55.8505 39.9368 56.3608 41.0637 55.7131 41.9452M53.4185 43.6196C53.6293 43.5918 53.8731 43.4969 54.3496 43.1432M55.7131 41.9452C55.6406 42.044 55.5535 42.1396 55.45 42.231C54.9793 42.6467 54.6254 42.9383 54.3496 43.1432M55.7131 41.9452C55.7894 41.9652 55.8745 41.9955 55.9607 42.0366M55.504 44.0218L56.3753 43.516C56.8411 42.7087 56.3876 42.24 55.9607 42.0366M55.504 44.0218C55.3474 43.7373 54.8973 43.1632 54.3496 43.1432M55.504 44.0218C55.5033 44.3329 55.453 44.8145 55.2985 45.1662M54.2716 46.5296C54.1633 46.1996 54.1021 45.5538 54.7235 45.6101C54.9953 45.6347 55.1784 45.4397 55.2985 45.1662M55.2985 45.1662C55.4828 45.4643 55.9762 46.0597 56.4761 46.0562M56.7493 43.3884C57.2773 43.4403 58.21 43.7949 57.7171 44.798M55.9607 42.0366L57.5608 40.2587M57.5608 40.2587L58.1359 39.0884M57.5608 40.2587C57.8896 40.4548 58.4779 41.1868 58.2014 42.5453" stroke="#CDA470"/>
<defs>
<linearGradient id="paint0_linear_1297_5399" x1="6" y1="1.22986e-05" x2="79.5184" y2="28.9138" gradientUnits="userSpaceOnUse">
<stop stop-color="#2E2721"/>
<stop offset="1" stop-color="#201F21"/>
</linearGradient>
</defs>
</svg>
