<svg width="69" height="69" viewBox="0 0 69 69" fill="none" xmlns="http://www.w3.org/2000/svg">
<circle cx="34.5" cy="34.5" r="34.5" fill="url(#paint0_linear_1297_5485)"/>
<mask id="mask0_1297_5485" style="mask-type:alpha" maskUnits="userSpaceOnUse" x="0" y="0" width="69" height="69">
<circle cx="34.5" cy="34.5" r="34.5" fill="url(#paint1_linear_1297_5485)"/>
</mask>
<g mask="url(#mask0_1297_5485)">
<path d="M31.3064 93.428C31.0536 95.1341 29.6635 98.1672 25.2403 102.527C21.7017 106.015 24.5662 110.173 26.4408 111.816V113.017C26.7568 113.943 28.425 116.012 32.5701 116.871C36.7153 117.73 39.5209 115.333 40.4055 114.028V113.017C44.9552 110.173 43.565 106.698 43.1226 104.928C42.6803 103.159 41.227 103.159 39.5209 100.884C37.8148 98.6095 36.9301 93.428 36.8038 92.2906C36.6774 91.1533 36.9301 90.9637 37.1197 90.9005C37.3093 90.8373 39.5841 88.6889 40.0264 87.9938C40.4687 87.2987 40.3424 83.9497 40.4055 82.8755C40.4687 81.8013 39.8369 80.9799 39.5841 80.348C39.4011 79.8906 37.7283 77.0494 36.6746 75.4193M31.3064 93.428C31.394 92.8369 31.382 92.2718 31.3248 91.7851M31.3064 93.428C28.7999 94.4391 22.46 96.1831 17.1521 95.0709C11.8443 93.9588 10.4752 93.1332 10.4541 92.8593C10.2224 93.3227 9.64529 94.2495 9.19033 94.2495C8.62163 94.2495 7.86336 93.8072 8.05293 93.428C8.20458 93.1247 8.62163 92.2064 8.8112 91.7851C7.8423 90.416 5.94243 87.4883 6.09408 86.73C6.28365 85.7822 4.38799 81.2958 11.4651 74.7874C16.6684 70.0022 21.0519 68.8377 23.7869 68.682M22.2704 71.312C21.1962 71.5647 17.784 73.0181 16.5202 73.7764C15.2564 74.5346 14.0559 75.672 13.8663 75.7984C13.6767 75.9248 12.5393 76.8094 11.8443 77.6309C11.1492 78.4523 8.2425 81.5486 8.2425 83.5074C8.2425 85.4663 7.86337 86.4773 8.62163 88.3098C8.83975 88.8369 9.30363 89.4163 9.88541 89.9803M22.2704 71.312C22.9865 71.1435 24.2363 71.1997 25.1771 71.2558M22.2704 71.312C20.796 73.4393 17.7966 77.7699 17.5944 78.0732C17.3922 78.3765 15.9094 80.6429 15.1933 81.7381C13.8242 83.6127 11.0481 87.4883 10.8964 87.9938C10.7448 88.4993 10.1592 89.5288 9.88541 89.9803M31.3248 91.7851C31.25 91.1482 31.0979 90.6457 30.9904 90.395C30.6745 90.1843 30.0932 89.7252 30.2954 89.5735C30.4976 89.4219 30.843 89.2155 30.9904 89.1312V86.3509C30.3796 85.9296 29.3096 84.6448 29.9162 82.8755C30.6745 80.6639 31.4328 80.7271 31.5591 80.4743C31.6855 80.2216 31.3064 78.6419 31.3064 78.4523C31.3064 78.2627 30.9904 77.5677 30.9904 77.1253C30.9904 76.683 31.8119 76.3671 31.5591 75.9248C31.3569 75.5709 30.9272 74.8506 30.7377 74.5346C30.4007 74.5346 29.6887 74.4841 29.5371 74.2819C29.3475 74.0291 29.158 73.4604 29.3475 73.2708C29.5371 73.0813 28.3997 73.334 28.3365 73.0813C28.2733 72.8285 27.7046 72.6389 27.7678 72.2598C27.831 71.8807 26.8832 71.312 26.2513 71.312C26.0406 71.312 25.6475 71.2839 25.1771 71.2558M31.3248 91.7851C25.2139 94.4391 15.762 93.1121 14.435 92.8593C13.8181 92.7418 12.6823 92.1464 11.5673 91.3587M32.3806 72.8285C32.1068 73.0813 31.597 73.5236 31.7487 73.2708C31.9383 72.9549 31.8751 72.4494 31.5591 72.2598C31.3064 72.1082 31.0747 71.986 30.9904 71.9439C30.843 71.7964 30.5102 71.4131 30.3585 71.0592C30.2069 70.7054 29.3265 70.4484 28.9052 70.3642C28.6434 69.9902 27.8405 69.2344 26.5672 68.8926M32.3806 72.8285L28.0206 66.6992C27.831 66.7413 27.4519 66.9267 27.4519 67.3311C27.4519 67.7355 27.0306 68.3421 26.82 68.5949L26.5672 68.8926M32.3806 72.8285C33.8659 73.8138 38.257 81.2326 38.7625 83.697C39.1669 85.6685 38.1306 87.383 37.5619 87.9938M26.5672 68.8926C26.4062 68.8494 26.2376 68.8128 26.0617 68.7844C25.5431 68.7008 24.7719 68.626 23.7869 68.682M25.1771 71.2558C23.6395 73.6757 20.2989 78.9073 19.2373 80.4743C17.9104 82.4332 16.0147 85.4031 14.9405 86.6037C13.8663 87.8042 14.3086 88.6889 13.3608 89.1312C12.6025 89.4851 11.8492 90.7636 11.5673 91.3587M11.5673 91.3587C10.9736 90.9394 10.3859 90.4655 9.88541 89.9803M23.7869 68.682C24.5452 67.7473 26.0617 65.8146 26.0617 65.5618C26.0617 65.3091 26.1881 64.3191 26.2513 63.8557C25.5983 62.6973 24.3177 59.8496 24.4188 57.7264C24.5452 55.0725 24.5452 50.1438 27.8942 46.4156C31.2432 42.6875 31.4959 42.3716 33.7075 41.1078M33.7075 41.1078C33.8549 41.6344 34.0613 42.8012 33.7075 43.2562C33.3538 43.7112 32.9704 43.9513 32.8229 44.0145M33.7075 41.1078C33.3494 40.9182 32.5574 40.4127 32.2541 39.9072C31.9508 39.4017 31.6643 38.3907 31.559 37.9484C31.3484 38.0115 30.8639 38.0368 30.6112 37.6324C30.2952 37.1269 30.5479 37.5692 30.0425 35.2944C29.5371 33.0196 28.6523 29.4811 27.6413 28.2805C26.6303 27.0799 25.4929 24.11 24.9242 23.9205C24.4692 23.7688 24.2712 23.5624 24.2291 23.4781C26.1629 23.277 30.1713 22.9418 34.0865 22.8181M32.8229 44.0145C31.9635 44.2167 30.0637 46.4999 29.2211 47.6162C28.2312 49.1328 26.2513 53.0505 26.2513 56.589C26.2513 60.1276 27.2623 62.1075 27.7678 62.6551C28.842 61.3282 31.2305 58.2193 32.191 56.3995C32.4459 55.9165 32.7577 55.3767 33.0945 54.8197M32.8229 44.0145C32.5513 44.4568 33.1387 44.8991 33.7075 45.2782C34.2764 45.6574 34.4025 45.8469 33.2652 46.9843C32.1279 48.1217 29.3475 49.9542 29.5371 50.9652C29.6887 51.774 31.9719 53.8719 33.0945 54.8197M36.6746 75.4193C36.2726 74.7973 35.9607 74.3517 35.856 74.2819C35.4768 74.0291 32.6965 69.9218 32.191 69.2268C31.7866 68.6707 30.1269 66.5518 29.3475 65.5618L29.5371 64.6772C29.6823 64.4342 29.8484 64.1564 30.028 63.8557M36.6746 75.4193C36.7176 74.8927 36.8795 73.8143 37.1828 73.7132C37.5619 73.5868 38.0674 73.8395 38.1306 73.2708C38.1812 72.8159 37.5198 71.9439 37.1828 71.5647C37.0134 71.2699 36.6746 70.6169 36.6746 70.3642C36.6746 70.0482 36.1718 69.985 36.2982 69.7955C36.4245 69.6059 37.5619 68.7692 37.9411 68.682C38.3202 68.5949 39.5207 68.4685 39.9631 67.3311C40.4055 66.1937 40.8478 64.9931 39.0153 63.6662C37.1828 62.3392 36.5509 61.8969 36.4245 61.5809C36.2982 61.265 36.5509 60.8859 36.8669 60.6963C37.1828 60.5067 37.9438 59.6853 37.3092 59.1798C36.6746 58.6742 36.4245 58.8638 36.4245 58.4215C36.4245 57.9792 37.4356 58.0424 37.5619 57.2209C37.6883 56.3995 37.4988 55.8308 37.1828 55.578C36.8669 55.3252 36.6773 54.6934 37.9411 54.1247C39.2048 53.556 40.1527 53.556 40.9109 52.4818C41.6692 51.4075 41.6692 49.891 40.5318 49.1328C39.6219 48.5261 39.268 48.1185 39.2048 47.9905M39.2048 47.9905C39.7639 46.2847 39.9835 44.5914 39.9 43.2562C39.7989 41.6386 38.8469 40.7287 38.3835 40.4759H39.2048C39.4365 40.2863 39.9 39.8187 39.9 39.4649C39.9 39.0226 40.3421 38.2643 40.5949 38.2011C40.8477 38.1379 41.8587 37.3797 42.0482 37.0637C42.2378 36.7478 42.3642 35.7999 42.4906 34.6625C42.6169 33.5251 44.2598 30.4289 44.639 29.6074C44.9423 28.9503 47.1666 26.0478 48.2408 24.6787C48.5568 24.5313 49.1507 24.1732 48.9991 23.9205C48.8182 23.6189 44.6664 22.9721 39.0152 22.8038M39.2048 47.9905C38.9172 48.8681 38.5398 49.749 38.0676 50.5861C36.6774 53.0505 33.7075 57.6632 33.2652 58.4215C33.149 58.6208 32.8249 59.1667 32.4032 59.8748M32.4032 59.8748C32.6694 60.275 33.1893 61.1512 33.1387 61.4546C33.0755 61.8337 31.4957 63.4134 30.9271 63.5398C30.4723 63.6409 30.1381 63.7925 30.028 63.8557M32.4032 59.8748C31.7117 61.0362 30.7578 62.634 30.028 63.8557M33.0945 54.8197C34.3439 52.7532 35.9364 50.4519 36.2351 49.9542C36.5764 49.3854 38.5564 45.2318 38.1644 43.2562M38.1644 43.2562C38.1209 43.0373 38.0484 42.8451 37.9412 42.6875C37.0818 41.4237 36.9091 41.4027 36.9302 41.5501C36.9091 41.6554 36.9174 42.0051 37.1196 42.5611C37.3218 43.1172 37.9004 43.2562 38.1644 43.2562ZM34.0865 22.8181C35.5019 22.7733 36.9052 22.7562 38.1938 22.7831C38.4709 22.7888 38.7447 22.7958 39.0152 22.8038M34.0865 22.8181C34.3603 22.6168 34.9458 22.1133 35.0975 21.7089C35.1607 21.414 35.148 20.8242 34.592 20.8242C33.8969 20.8242 33.3282 19.6868 33.3282 19.1181C33.3282 18.6632 33.581 18.1282 33.7073 17.9175V16.3378L34.0865 16.0851M39.0152 22.8038C38.6571 22.5863 37.9662 22.088 38.0674 21.8352C38.1685 21.5825 38.4044 21.2665 38.5097 21.1402V20.8242C38.6782 20.8663 39.0784 20.9253 39.3311 20.8242C39.6471 20.6978 39.8998 20.1923 39.8998 19.6868C39.8998 19.1813 40.0894 18.0439 39.8998 17.1593C39.7482 16.4516 39.4575 16.3168 39.3311 16.3378M39.3311 16.3378L38.8256 16.7801C38.5729 16.7591 38.0674 16.679 38.0674 16.5274C38.0674 16.3378 37.625 15.5795 37.3091 15.7691C37.0563 15.9208 36.1506 16.2114 35.7294 16.3378L35.0975 16.0851C34.9922 15.9376 34.7436 15.7312 34.592 16.0851C34.4403 16.4389 34.1918 16.2325 34.0865 16.0851M39.3311 16.3378C39.1837 15.8955 38.8888 14.9477 39.3943 14.2526C39.5207 14.2526 42.5538 11.2195 41.29 8.50241M34.0865 16.0851C34.8447 15.2004 34.4024 14.5053 34.4024 14.2526C31.8117 13.052 32.254 8.69198 32.4436 8.50241M32.4436 8.50241C32.7595 8.50241 35.4766 9.38705 41.29 8.50241M32.4436 8.50241C34.592 8.12328 39.369 7.5925 41.29 8.50241" stroke="#CDA470"/>
<path d="M37.5635 88.0572L37.3739 90.5848M29.7281 84.3923C30.2547 84.982 31.826 86.1363 33.8986 86.0352C36.4893 85.9088 37.1844 85.972 38.7009 84.645M29.8545 83.1285C30.3179 83.9289 31.7754 85.4665 33.8986 85.2137C36.5525 84.8978 37.7531 85.2137 38.7009 83.634M26.4423 26.385C28.9277 25.5425 36.4767 24.363 46.7891 26.385M28.2748 29.4181L44.6406 29.6077M30.36 36.748C30.5047 36.748 33.0871 36.748 35.9838 36.748C38.1461 36.748 40.4836 36.748 42.1131 36.748M31.5606 38.0118C31.8639 38.0118 37.9637 38.0118 40.9757 38.0118" stroke="#CDA470"/>
</g>
<defs>
<linearGradient id="paint0_linear_1297_5485" x1="6" y1="1.22986e-05" x2="79.5184" y2="28.9138" gradientUnits="userSpaceOnUse">
<stop stop-color="#2E2721"/>
<stop offset="1" stop-color="#201F21"/>
</linearGradient>
<linearGradient id="paint1_linear_1297_5485" x1="6" y1="1.22986e-05" x2="79.5184" y2="28.9138" gradientUnits="userSpaceOnUse">
<stop stop-color="#2E2721"/>
<stop offset="1" stop-color="#201F21"/>
</linearGradient>
</defs>
</svg>
