<svg width="69" height="69" viewBox="0 0 69 69" fill="none" xmlns="http://www.w3.org/2000/svg">
<circle cx="34.5" cy="34.5" r="34.5" fill="url(#paint0_linear_1297_5447)"/>
<path d="M20.8924 18.3179C22.6196 17.7422 27.4495 18.078 29.6485 18.3179C31.3277 18.4723 32.1675 18.3179 36.8454 19.8772C41.5234 21.4365 40.6837 23.5956 41.0436 25.1549C41.4034 26.7142 36.6055 31.0323 32.8871 35.7103C29.1688 40.3882 26.5299 38.8289 24.7307 39.0688C22.9315 39.3087 16.9341 36.7898 14.5352 36.5499C12.1362 36.31 6.2588 32.9515 7.81811 31.0323C9.37743 29.1132 18.7333 19.0376 20.8924 18.3179Z" stroke="#CDA470"/>
<path d="M7.45885 31.8719C7.21896 32.3517 6.81114 33.6472 7.09901 34.9906C7.45885 36.6698 8.89831 39.9084 9.01825 41.2278C9.1382 42.5472 10.5776 43.7467 11.1773 44.2265C11.777 44.7063 22.0925 48.7845 27.1303 47.3451C32.1681 45.9058 36.846 42.4273 40.9242 35.3504C41.564 34.7507 42.7714 32.9035 42.4835 30.3126C42.1957 27.7218 41.3241 25.1549 40.9242 24.1953" stroke="#CDA470"/>
<path d="M12.1365 42.7874L12.7363 43.8669M12.1365 40.0286C12.4164 41.1881 13.0721 43.579 13.456 43.8669M13.456 40.5084L14.2956 43.8669M15.1352 43.0272L15.735 43.8669M17.1743 39.1889L17.7741 44.5866M18.3738 42.0677L19.8132 45.1863M20.7728 41.1081L21.2525 45.1863M22.0922 42.3076V45.1863M22.9318 43.8669V45.1863M24.1313 41.1081V46.0259M25.2108 43.8669V45.6661M28.6893 40.0286L29.1691 44.5866M29.7688 41.1081V42.7874M29.1691 45.1863V46.0259M30.4885 39.6687C30.6084 41.1081 30.6324 44.1068 29.7688 44.5866M31.568 38.5892C31.648 40.9482 31.544 45.6661 30.4885 45.6661M32.6475 37.8695C32.5676 40.1885 32.2877 44.9464 31.8079 45.4262M33.4872 36.67C33.6893 38.8291 33.8044 43.2911 32.6475 43.8669M34.5667 36.1903C34.5267 37.7096 34.3508 41.0601 33.967 42.3076M35.4063 33.7913C35.5988 36.0303 35.7963 40.6283 35.0465 41.1081M36.6058 33.4315C36.6549 35.5106 36.6276 39.6687 36.126 39.6687M37.4454 32.3519C37.6453 34.471 37.8532 38.8051 37.0856 39.1889M38.2851 31.2724C38.5115 32.9117 38.8286 36.2862 38.2851 36.67M38.8848 29.953C39.2047 31.8721 39.6525 35.8064 38.8848 36.1903M40.3242 30.4328V32.3519M35.7662 26.3546L35.4063 27.9139M34.5667 25.7548C34.6067 26.5145 34.5667 28.0578 34.0869 28.1538M37.4454 22.5163L37.8053 23.8357M38.2851 22.996V24.1955M33.4872 21.7966L32.6475 22.996M32.6475 21.1968L32.1677 22.996M29.1691 20.5971V21.7966M27.8496 19.9974L28.0895 21.4367M21.2525 19.5176L22.0922 19.9974M20.173 21.4367L19.6932 20.9569M19.6932 22.5163L18.8536 21.7966M18.8536 22.996L17.7741 21.7966M14.2956 27.4341L14.6554 28.9934M13.456 27.0743L13.9358 28.9934M11.4169 32.3519L10.6972 31.7522M11.4169 33.0716L11.177 33.6714M9.85755 33.4315L9.25781 32.7118M15.735 31.7522V33.0716M16.5746 32.3519V33.4315M22.452 34.6309V36.1903M26.8901 33.6714C26.8501 34.511 26.6742 36.1903 26.2903 36.1903M27.9696 34.0312C28.0096 34.6309 27.9696 35.8304 27.4898 35.8304M29.1691 28.5136L30.4885 29.953M30.9683 28.1538V29.5932M31.8079 32.3519V33.7913M32.6475 31.7522V33.0716" stroke="#CDA470"/>
<path d="M19.6903 27.5534C21.3216 23.6191 24.7681 22.5556 26.2874 22.5156C26.6073 23.4752 27.0552 25.9941 26.2874 28.393C25.5197 30.792 21.6495 32.5912 19.8103 33.1909C19.0906 32.951 18.0591 31.4877 19.6903 27.5534Z" stroke="#CDA470"/>
<path d="M26.2883 22.6357C25.0089 23.0755 22.2101 24.4829 21.2505 26.594M26.2883 22.6357C26.0461 22.8712 25.7597 23.1565 25.4487 23.475M26.2883 22.6357L26.6481 24.315M21.3705 28.6331C21.7695 27.4359 23.9111 25.0494 25.4487 23.475M25.4487 23.475C25.0888 24.7546 24.1532 27.4816 23.2896 28.1533M23.2896 28.1533C22.426 28.825 21.0906 30.8321 20.5308 31.7517M23.2896 28.1533L26.6481 24.315M26.6481 24.315C25.9684 25.6744 24.4171 28.5371 23.6495 29.1129M26.6481 24.315C26.3283 25.9143 25.2088 29.4248 23.2896 30.6722C21.3705 31.9197 20.5708 32.0716 20.4109 31.9916M18.8516 31.152C18.9315 30.7122 19.1874 29.7606 19.5712 29.4727M19.3314 32.7113C19.1314 32.2715 18.9955 31.248 20.051 30.6722" stroke="#CDA470"/>
<path d="M25.3346 23.5953L26.2942 22.6357L26.654 24.435L25.5745 25.5145L24.375 26.8339V26.3541L24.8548 25.3945L25.2146 24.435L25.3346 23.5953Z" fill="#120D0B"/>
<path d="M50.184 33.3646C51.1728 33.035 53.9378 33.2273 55.1967 33.3646C56.158 33.453 56.6387 33.3646 59.3167 34.2573C61.9947 35.1499 61.514 36.3859 61.72 37.2786C61.926 38.1713 59.1794 40.6433 57.0507 43.3213C54.922 45.9993 53.4114 45.1066 52.3814 45.2439C51.3514 45.3813 47.918 43.9393 46.5447 43.8019C45.1713 43.6646 41.8067 41.7419 42.6993 40.6433C43.592 39.5446 48.948 33.7766 50.184 33.3646Z" stroke="#CDA470"/>
<path d="M42.4932 41.1242C42.3558 41.3988 42.1224 42.1404 42.2872 42.9095C42.4932 43.8708 43.3172 45.7248 43.3859 46.4802C43.4545 47.2355 44.2785 47.9222 44.6219 48.1968C44.9652 48.4715 50.8705 50.8062 53.7545 49.9822C56.6385 49.1582 59.3165 47.1668 61.6512 43.1155C62.0174 42.7722 62.7087 41.7147 62.5439 40.2315C62.3791 38.7483 61.8801 37.2788 61.6512 36.7295" stroke="#CDA470"/>
<path d="M45.1714 47.3731L45.5148 47.9911M45.1714 45.7938C45.3317 46.4575 45.707 47.8263 45.9268 47.9911M45.9268 46.0684L46.4074 47.9911M46.8881 47.5104L47.2314 47.9911M48.0554 45.3131L48.3988 48.4031M48.7421 46.9611L49.5661 48.7464M50.1154 46.4118L50.3901 48.7464M50.8708 47.0984V48.7464M51.3514 47.9911V48.7464M52.0381 46.4118V49.2271M52.6561 47.9911V49.0211M54.6474 45.7938L54.9221 48.4031M55.2654 46.4118V47.3731M54.9221 48.7464V49.2271M55.6774 45.5878C55.7461 46.4118 55.7598 48.1284 55.2654 48.4031M56.2954 44.9698C56.3412 46.3202 56.2817 49.0211 55.6774 49.0211M56.9134 44.5578C56.8677 45.8853 56.7074 48.6091 56.4328 48.8838M57.3941 43.8711C57.5098 45.1071 57.5757 47.6615 56.9134 47.9911M58.0121 43.5964C57.9892 44.4662 57.8885 46.3843 57.6688 47.0984M58.4928 42.2231C58.603 43.5049 58.716 46.1371 58.2868 46.4118M59.1794 42.0171C59.2075 43.2073 59.1919 45.5878 58.9048 45.5878M59.6601 41.3991C59.7745 42.6122 59.8936 45.0934 59.4541 45.3131M60.1408 40.7811C60.2704 41.7195 60.4519 43.6514 60.1408 43.8711M60.4841 40.0258C60.6672 41.1244 60.9236 43.3767 60.4841 43.5964M61.3081 40.3004V41.3991M58.6988 37.9658L58.4928 38.8584M58.0121 37.6224C58.035 38.0573 58.0121 38.9408 57.7374 38.9958M59.6601 35.7684L59.8661 36.5238M60.1408 36.0431V36.7298M57.3941 35.3564L56.9134 36.0431M56.9134 35.0131L56.6388 36.0431M54.9221 34.6698V35.3564M54.1668 34.3264L54.3041 35.1504M50.3901 34.0518L50.8708 34.3264M49.7721 35.1504L49.4974 34.8758M49.4974 35.7684L49.0168 35.3564M49.0168 36.0431L48.3988 35.3564M46.4074 38.5838L46.6134 39.4764M45.9268 38.3778L46.2014 39.4764M44.7594 41.3991L44.3474 41.0558M44.7594 41.8111L44.6221 42.1544M43.8668 42.0171L43.5234 41.6051M47.2314 41.0558V41.8111M47.7121 41.3991V42.0171M51.0768 42.7038V43.5964M53.6174 42.1544C53.5945 42.6351 53.4938 43.5964 53.2741 43.5964M54.2354 42.3604C54.2583 42.7038 54.2354 43.3904 53.9608 43.3904M54.9221 39.2018L55.6774 40.0258M55.9521 38.9958V39.8198M56.4328 41.3991V42.2231M56.9134 41.0558V41.8111" stroke="#CDA470"/>
<path d="M49.4981 38.6516C50.4319 36.3993 52.405 35.7905 53.2747 35.7676C53.4579 36.3169 53.7142 37.7589 53.2747 39.1322C52.8352 40.5056 50.6196 41.5356 49.5667 41.8789C49.1547 41.7416 48.5642 40.9038 49.4981 38.6516Z" stroke="#CDA470"/>
<path d="M53.273 35.8369C52.5405 36.0887 50.9383 36.8944 50.389 38.1029M53.273 35.8369C53.1343 35.9717 52.9704 36.135 52.7923 36.3174M53.273 35.8369L53.479 36.7982M50.4576 39.2702C50.6861 38.5849 51.9121 37.2187 52.7923 36.3174M52.7923 36.3174C52.5863 37.0499 52.0507 38.611 51.5563 38.9956M51.5563 38.9956C51.0619 39.3801 50.2974 40.5291 49.977 41.0556M51.5563 38.9956L53.479 36.7982M53.479 36.7982C53.0898 37.5765 52.2018 39.2153 51.7623 39.5449M53.479 36.7982C53.2958 37.7138 52.655 39.7234 51.5563 40.4376C50.4576 41.1517 49.9998 41.2387 49.9083 41.1929M49.0156 40.7122C49.0614 40.4605 49.2079 39.9157 49.4276 39.7509M49.2903 41.6049C49.1758 41.3531 49.098 40.7672 49.7023 40.4376" stroke="#CDA470"/>
<path d="M52.7251 36.3862L53.2744 35.8369L53.4804 36.8669L52.8624 37.4849L52.1758 38.2402V37.9656L52.4504 37.4162L52.6564 36.8669L52.7251 36.3862Z" fill="#120D0B"/>
<defs>
<linearGradient id="paint0_linear_1297_5447" x1="6" y1="1.22986e-05" x2="79.5184" y2="28.9138" gradientUnits="userSpaceOnUse">
<stop stop-color="#2E2721"/>
<stop offset="1" stop-color="#201F21"/>
</linearGradient>
</defs>
</svg>
