<svg width="69" height="69" viewBox="0 0 69 69" fill="none" xmlns="http://www.w3.org/2000/svg">
<circle cx="34.5" cy="34.5" r="34.5" fill="url(#paint0_linear_1297_5418)"/>
<path d="M26.7305 34.4193C28.6504 27.8793 25.5894 22.9136 24.4175 21.3815C21.8269 19.2242 23.7698 13.315 35.9824 14.0654C48.195 14.8158 46.5297 19.318 44.2167 21.9443C41.9037 24.5706 43.1064 26.728 42.6438 31.0426C42.1812 35.3572 47.3623 40.8913 42.3663 45.4873C37.3702 50.0833 34.3171 49.2392 29.9686 46.988C25.6202 44.7369 24.4175 42.2982 26.7305 34.4193Z" stroke="#CDA470"/>
<path d="M44.7941 41.8928C44.5122 42.0807 41.2226 47.6218 36.1473 47.2462C31.072 46.8705 29.4743 46.6827 25.5268 41.8928M44.7941 21.0549C35 26.5003 27.3497 23.0969 25 21.5003C33.1205 15.7149 41.7552 19.102 45.0761 21.2308" stroke="#CDA470"/>
<path d="M42.6273 43.7525C44.1393 43.7525 42.0765 42.8261 41.3988 42.5024M40.1703 42.2661C40.6501 42.2412 41.0589 42.3401 41.3988 42.5024M29.0194 42.7306C28.6414 42.7925 27.9232 43.0836 28.0744 43.7525M27.5 30.5001C28.0355 31.522 30.2101 33.7188 33.4609 32.9755C36.7117 32.2323 38.3434 32.1084 38.7529 32.1394M38.7529 32.1394C36.7117 29.0178 37.685 27.522 38 26.5001M38.7529 32.1394C38.5324 32.9136 38.2993 34.5178 39.1309 34.7407C40.1703 35.0195 41.3043 35.0195 41.3988 35.9485C41.4933 36.8776 42.2493 38.2794 41.3988 42.5024M38 26.5001C32.4812 27.8379 27.287 24.9857 25.8065 24.0566M38 26.5001C38 26.5001 40.3593 26.2433 42.6273 25.5001M44.1393 37.2492C44.5929 37.0262 45.2733 37.5898 45.5568 37.8995C49.1856 41.2441 47.2578 43.9383 45.8403 44.8674H45C45.4508 45.8735 46.2179 47.5919 46.7132 49.0481M43.0998 44.8674C43.4779 45.239 43.9503 45.2081 44.1393 45.1461C44.1393 47.3241 44.241 49.0659 44.4127 50.4417M43.4778 33.3472C45.4623 33.6259 49.677 35.0752 50.6598 38.6428C51.8882 43.1022 51.4158 45.7964 47.6358 48.3978L46.7132 49.0481M46.7132 49.0481C47.4984 51.357 48.2385 55.2708 47.6358 56.0001C46.679 57.1578 45.0173 55.2869 44.4127 50.4417M44.4127 50.4417C42.5576 51.2469 37.7701 52.7458 33.4609 52.2998C28.0744 51.7424 19.0025 49.141 18.152 44.4029C17.3015 39.6647 20.042 34.7407 25.8065 32.9755" stroke="#CDA470"/>
<defs>
<linearGradient id="paint0_linear_1297_5418" x1="6" y1="1.22986e-05" x2="79.5184" y2="28.9138" gradientUnits="userSpaceOnUse">
<stop stop-color="#2E2721"/>
<stop offset="1" stop-color="#201F21"/>
</linearGradient>
</defs>
</svg>
