<svg width="69" height="69" viewBox="0 0 69 69" fill="none" xmlns="http://www.w3.org/2000/svg">
<circle cx="34.5" cy="34.5" r="34.5" fill="url(#paint0_linear_1297_5465)"/>
<path d="M44.779 38.44C44.6635 38.9763 44.4401 39.6016 44.0908 40.1966M36.849 41.4012C37.0163 40.916 37.1903 39.765 36.5479 39.0423C36.4243 38.9032 36.3173 38.751 36.2259 38.5906M36.849 41.4012C36.7738 41.8671 36.6163 42.5586 36.3782 43.208M36.849 41.4012C38.1026 42.0859 39.1845 42.3963 40.1113 42.4426M35.9456 35.9807C35.7051 36.5418 35.7207 37.5832 36.1458 38.44M35.1425 44.9145C35.1425 45.4364 36.2802 45.8346 36.849 45.9685C37.468 46.0019 38.9067 46.0789 39.7097 46.119C40.7135 46.1692 41.4664 45.2658 42.7713 44.6635C43.8153 44.1817 44.0859 41.4848 44.0908 40.1966M35.1425 44.9145C35.4499 44.812 35.7178 44.5229 35.9456 44.143M35.1425 44.9145C34.967 44.973 35.6576 45.2198 35.34 45.291M29.2201 37.7373C28.9691 37.8879 28.8085 38.3572 28.5977 38.8415M36.3782 43.208C36.6522 43.3586 37.2103 43.6898 37.2504 43.8103C37.3006 43.9609 37.6018 43.5092 38.0535 43.5092C38.4148 43.5092 38.9736 43.7099 39.2078 43.8103L39.5592 43.208C39.509 43.1076 39.4387 42.8868 39.5592 42.8065C39.6796 42.7262 39.9774 42.5305 40.1113 42.4426M36.3782 43.208C36.2554 43.5431 36.1111 43.867 35.9456 44.143M40.1113 42.4426C41.3993 42.5071 42.3878 42.0613 43.1215 41.4012M44.0908 40.1966C43.8366 40.6295 43.5159 41.0463 43.1215 41.4012M35.9456 44.143C36.1129 44.6177 36.608 45.5569 37.2504 45.5167C37.8929 45.4766 39.1911 45.4331 39.7599 45.4164C40.2618 45.1654 41.2857 44.6635 41.366 44.6635C41.4463 44.6635 42.3363 43.5259 42.7713 42.9571L43.1215 41.4012M36.1458 38.44C35.7611 38.2727 34.9819 37.8979 34.9417 37.7373C34.9016 37.5767 34.7911 36.9343 34.741 36.6332L34.3896 36.9343C34.6573 37.3525 35.0622 37.8578 34.5402 37.7373C34.0182 37.6169 33.5866 37.1518 33.436 36.9343M36.1458 38.44C36.171 38.4909 36.1977 38.5411 36.2259 38.5906M33.0345 36.9343L32.382 36.6332C32.5159 36.5997 33.2353 36.8741 33.0345 36.6332M31.9062 36.2316C31.9062 36.6332 31.3782 36.8841 31.0269 36.4324C30.7458 36.071 30.3075 35.4453 30.1235 35.1777C30.0064 35.0605 29.7621 34.8966 29.722 35.1777C29.6818 35.4587 29.9729 35.8301 30.1235 35.9807L29.9729 36.2316C30.2239 36.4659 30.6655 36.9343 30.4246 36.9343C30.1837 36.9343 29.7554 36.7335 29.5714 36.6332C29.6049 36.5328 29.6517 36.3119 29.5714 36.2316C29.471 36.1313 29.3706 35.529 29.2201 35.529C29.0695 35.529 29.1699 36.2316 28.9691 36.2316C28.8085 36.2316 28.6011 36.2316 28.5174 36.2316L28.7684 36.9343L27.865 37.1852L26.9615 36.9343V37.4864C26.9615 37.5868 26.9013 37.8076 26.6604 37.8879C26.3091 38.44 26.0581 38.6909 26.2589 39.0423C26.4195 39.3233 26.5935 39.4605 26.6604 39.494L27.3128 38.8415C27.2292 39.0423 27.1422 39.4237 27.4634 39.3434C27.865 39.243 27.3128 38.3898 27.7144 38.1388C28.0356 37.9381 28.3836 37.8879 28.5174 37.8879L28.3668 38.8415C28.3804 38.9753 28.4456 39.1627 28.5977 38.8415M28.5977 38.8415C28.8219 38.3731 29.3305 37.4964 29.5714 37.7373C29.8725 38.0385 29.5714 38.189 29.5714 38.44C29.5714 38.6909 29.471 39.4438 29.722 39.0423C29.9227 38.721 30.2741 38.5069 30.4246 38.44C30.5752 38.4734 30.8663 38.5002 30.8261 38.3396C30.786 38.179 30.5417 37.8712 30.4246 37.7373C30.6421 37.6537 31.1674 37.4864 31.5288 37.4864C31.8902 37.4864 31.6794 37.7541 31.5288 37.8879C31.3113 38.2894 31.0068 39.0423 31.5288 38.8415C32.1813 38.5906 31.8801 37.9883 32.0809 37.9883C32.2816 37.9883 32.131 37.0849 32.7835 37.4864C33.3055 37.8076 33.6702 38.0552 33.7873 38.1388H34.3896C34.4398 38.2058 34.5803 38.3898 34.741 38.5906C34.9417 38.8415 35.1425 38.7411 35.1425 39.0423C35.3432 40.1966 35.6442 39.243 35.7949 39.0423C35.9155 38.8817 36.1324 38.6742 36.2259 38.5906M28.5977 38.8415C28.1717 39.8204 27.8168 41.2305 28.0454 42.8065M31.2778 45.3885C30.5233 45.3337 29.7941 45.1642 29.2201 44.8056M31.2778 45.3885C30.8763 46.1784 29.9027 47.1678 29.2201 44.8056M31.2778 45.3885C31.6957 45.4188 32.1213 45.414 32.5326 45.3867C32.8452 45.3659 33.1496 45.3322 33.436 45.291M29.2201 44.8056C28.6749 44.465 28.2698 43.9538 28.1159 43.208C28.0881 43.0731 28.0647 42.9392 28.0454 42.8065M33.436 45.291C33.1516 46.4202 32.0106 48.5081 29.722 47.8255C26.8611 46.9722 27.5734 44.7137 28.0454 42.8065M33.436 45.291C33.7868 45.2406 35.0609 45.3535 35.34 45.291M30.1235 49.5003C32.3319 49.3497 34.7879 47.9648 35.34 45.291" stroke="#CDA470"/>
<path d="M15.2188 47.8252C17.4104 49.9164 23.133 51.6806 25.502 44.6942M19.8864 42.2541C20.1875 43.5925 23.3262 45.4161 27.502 44.4123M20.6894 41.6016C20.5891 41.8359 20.569 42.234 21.2917 41.953C22.0144 41.6719 24.7677 37.1171 25.002 37M21.2917 42.6556C21.091 42.9568 21.9944 43.7096 22.1449 43.7598C22.2955 43.81 21.894 44.5628 23.1487 44.4123C24.4035 44.2617 24.1023 43.9606 24.1023 43.7598C24.1023 43.5992 26.435 39.9852 26.502 39.5" stroke="#CDA470"/>
<path d="M15.4832 49.6923C15.3964 48.7015 14.5063 48.8128 14.0721 48.9923C13.6922 47.8615 14.9405 46.7308 14.8862 47.2154C14.8428 47.6031 15.1214 47.8795 15.2661 47.9692C17.2742 50.1231 20.3136 49.6923 21.8333 49.2615C23.049 48.9169 23.7148 47.9692 23.8957 47.5385L24.9811 47C25.1802 47.1615 25.6541 47.5169 25.9581 47.6462C26.338 47.8077 28.0748 47.8077 28.4547 47.8077C28.8346 47.8077 29.1602 47.9154 29.703 48.4C30.2457 48.8846 29.9201 48.9923 29.703 49.2615C29.4859 49.5308 28.8889 50.1231 28.4547 49.8538C28.0205 49.5846 28.0748 50.1231 27.8034 50.6615C27.532 51.2 28.0748 51.3077 28.0748 51.8462C28.0748 52.3846 27.3692 51.5231 26.935 51.3077C26.5008 51.0923 27.0436 52.6 26.935 53.0846C26.8482 53.4723 26.5008 52.9231 26.338 52.6C26.2475 52.3487 26.0449 51.7169 25.9581 51.2C25.8495 50.5538 22.7559 49.3154 22.5388 49.2615C22.3217 49.2077 24.3299 50.7692 24.6555 51.0385C24.916 51.2538 24.6555 51.2359 24.4927 51.2C24.4746 51.3077 24.5144 51.6954 24.8183 52.3846C25.1223 53.0738 24.2213 51.9538 23.7328 51.3077L24.0042 53.0846L23.0273 51.8462C22.8826 51.5769 22.5171 50.8985 22.2132 50.3385C21.9092 49.7785 20.8201 49.7821 20.3136 49.8538C20.3679 50.0513 20.7803 50.5646 21.9961 51.0385C23.5157 51.6308 21.182 51.2538 20.8021 51.3077C20.4221 51.3615 21.0734 51.5231 21.6704 52.1692C22.2674 52.8154 21.8875 53.0846 21.6704 53.0846C21.4533 53.0846 20.9649 52.1692 20.8021 52.1692C20.6392 52.1692 20.4764 53.5154 20.4764 53.0846C20.4764 52.74 20.3679 52.1154 20.3136 51.8462H19.7708C19.7708 51.7385 19.684 51.3077 19.3367 50.4462C18.9025 49.3692 17.7627 49.9615 17.5999 50.1231C17.4371 50.2846 18.414 51.3615 19.3367 51.8462C20.0748 52.2338 19.4271 52.2231 19.011 52.1692C19.21 52.4385 19.6406 52.9985 19.7708 53.0846C19.9337 53.1923 19.8794 54 19.608 53.8385C19.3909 53.7092 18.5406 52.959 18.1426 52.6L18.2512 54C18.0522 54 17.6433 53.7631 17.5999 52.8154C17.5565 51.8677 17.4371 51.559 17.3828 51.5231L16.2973 50.1231L16.4601 51.5231C16.1707 51.3256 15.57 50.6831 15.4832 49.6923Z" fill="#292421" stroke="#CDA470"/>
<path d="M35.9948 35.98C34.5561 36.8165 31.3272 37.6564 29.9219 34.3238M31.6283 33.6211C31.9797 34.2401 33.0939 35.4078 34.7401 35.1268" stroke="#CDA470"/>
<path d="M32.1797 33.4209C32.3804 33.8391 33.0931 34.6455 34.3378 34.5251" stroke="#CDA470"/>
<path d="M14.1618 54.3498C13.6097 53.1787 13.0777 50.154 15.3663 47.4236C17.655 44.6933 22.2089 39.594 24.1997 37.3857C26.2408 36.5157 30.3731 34.5951 30.5738 33.8724C30.7746 33.1497 34.5054 32.4671 36.3457 32.2161C36.881 32.0823 38.5641 31.7143 41.0133 31.3127C44.0749 30.8108 47.4376 29.807 48.5418 29.1044C49.4251 28.5423 58.3121 29.2048 62.6451 29.6063M14.1618 54.3498C12.5156 53.9483 11.736 49.5651 11.5519 47.4236M14.1618 54.3498C17.3739 53.6305 25.0027 51.7801 29.821 50.1339C35.8437 48.0761 42.4688 46.5704 43.4224 45.667C44.1853 44.9443 47.3539 43.7598 48.8429 43.2579L56.6725 37.3857L62.2436 30.7606L62.6451 29.6063M62.6451 29.6063C62.1432 28.6359 60.5873 26.1934 58.379 24.1858M58.379 24.1858C55.6185 21.6763 51.8543 19.5181 47.2369 17.9623M58.379 24.1858C56.9402 24.0352 53.7816 23.8947 52.6573 24.5371M47.2369 17.9623C42.6194 16.4064 35.4924 15.8041 33.4849 16.055C31.4773 16.306 26.1571 17.4102 23.5473 19.0664C20.9374 20.7227 21.1884 21.7767 20.0842 22.0778M47.2369 17.9623C45.2962 18.2299 41.0434 19.0965 39.5578 20.4216M20.0842 22.0778C19.2008 22.3187 17.1397 24.5538 16.2196 25.6413C15.3831 26.5614 13.5896 28.7832 13.1078 30.3089C12.626 31.8347 11.5352 34.1903 11.05 35.1773M20.0842 22.0778C21.3724 21.4923 24.6112 20.4617 27.2613 21.0238M11.05 35.1773C11.1337 35.7629 11.2508 37.4058 11.05 39.2929C10.8493 41.18 11.301 45.4997 11.5519 47.4236M11.05 35.1773C10.8995 35.2945 11.311 35.2878 14.1618 34.3241C17.0125 33.3605 17.5245 33.9226 17.4241 34.3241M11.5519 47.4236C12.104 47.4236 13.3085 45.0145 14.764 44.8138" stroke="#CDA470"/>
<path d="M32.3317 18.3638C31.2945 18.0627 29.2702 17.7816 29.4709 19.0665C29.7219 20.6725 33.3355 20.0201 32.3317 18.3638Z" stroke="#CDA470"/>
<path d="M29.8193 27.3475C31.5057 27.2672 31.9608 28.2509 31.9775 28.7528C31.8604 28.9201 31.4857 29.1543 30.9236 28.7528C30.2209 28.2509 29.8193 29.3049 28.3136 29.2547C26.8079 29.2045 27.7114 27.4479 29.8193 27.3475Z" stroke="#CDA470"/>
<path d="M21.2871 24.6874C21.6083 23.4026 23.1274 23.9513 23.8468 24.3863C24.9711 24.9484 23.3784 25.6243 22.4415 25.892C21.9229 26.0258 20.9659 25.9723 21.2871 24.6874Z" stroke="#CDA470"/>
<path d="M16.3188 31.5131C16.2385 29.9873 18.1591 29.5724 19.1295 29.5557C19.9326 29.9973 19.4641 30.7435 19.1295 31.0614C18.2261 31.8477 16.3992 33.0388 16.3188 31.5131Z" stroke="#CDA470"/>
<path d="M25.3027 33.872C25.0518 33.5039 24.2989 32.9886 23.2951 33.872C22.0404 34.9762 25.3027 34.8758 25.3027 33.872Z" stroke="#CDA470"/>
<path d="M42.4179 30.9617C42.6521 32.5176 42.6287 35.7398 40.6613 36.1815C38.202 36.7336 34.0864 36.4324 34.3876 32.6682M17.8249 39.6446C16.9884 39.494 15.3053 39.5542 15.2652 40.9997C15.215 42.8065 15.4158 42.9069 16.018 42.7062C16.6203 42.5054 18.929 40.1465 17.8249 39.6446ZM35.9936 20.8736C35.4081 20.9238 34.4679 21.2651 35.3914 22.2287C36.5457 23.4333 38.202 21.5261 35.9936 20.8736ZM42.4179 21.4759C41.9829 21.4424 41.103 21.5462 41.0628 22.2287C41.0126 23.082 42.1168 22.831 42.7191 22.831C43.3213 22.831 44.5761 22.0782 42.4179 21.4759ZM46.8848 20.171C46.2491 20.0371 45.0378 19.9903 45.2787 20.8736C45.5197 21.7569 46.6841 21.6432 47.2361 21.4759C47.4369 21.2082 47.6477 20.5725 46.8848 20.171ZM47.8384 24.5375C47.4871 24.7717 46.6339 25.4007 46.0316 26.0432C45.2787 26.8462 44.1244 26.8964 44.2749 27.4485C44.4255 28.0006 46.5335 27.1473 46.8848 26.9466C47.2361 26.7458 49.9464 25.3907 47.8384 24.5375ZM39.5069 34.3245C39.5069 34.6925 39.4567 35.4286 39.256 35.4286C39.005 35.4286 41.0126 35.4286 39.5069 34.3245Z" stroke="#CDA470"/>
<path d="M41.8125 35.4788C42.1304 36.4492 43.268 38.3999 45.2756 38.44C47.7851 38.4902 50.0436 37.1853 50.7965 35.2781M50.7965 35.2781C49.5919 34.8364 48.287 31.2127 47.7851 29.4561M50.7965 35.2781C52.1181 35.9138 55.2132 36.9644 57.02 36.0811C59.2785 34.9769 61.8884 31.1625 60.985 29.4561" stroke="#CDA470"/>
<path d="M43.7736 41.5308C44.8887 40.7513 44.9923 39.213 44.8777 38.4397C45.9485 38.3226 48.3107 37.9679 49.1941 37.4861C49.465 37.3383 49.6989 37.1206 49.8967 36.8738C50.3437 36.3162 50.607 35.6103 50.6997 35.2276C51.1013 35.4116 52.4363 35.9001 54.5644 36.3819C57.2244 36.9842 56.8731 35.9302 57.4252 35.88C57.8668 35.8399 58.9811 34.6922 59.483 34.1234C60.0016 33.9393 60.9585 33.6516 60.6373 33.9728C60.3161 34.294 59.7339 34.8093 59.483 35.0268C59.8176 35.0101 60.3763 35.0469 59.9347 35.3279C59.493 35.609 58.8138 35.6793 58.5294 35.6793C58.7468 35.7462 59.2922 35.9402 59.7339 36.1812C60.286 36.4823 62.143 35.2777 61.6411 35.6793C61.2396 36.0005 60.035 36.5827 59.483 36.8336L60.4868 37.2853L58.2784 37.3857L58.3788 38.0884C58.6799 38.1553 59.2621 38.3192 59.1818 38.4397C59.1015 38.5602 58.613 38.8245 58.3788 38.9416V39.5439C57.8267 39.5439 58.0776 38.5903 57.5256 38.4397C57.0839 38.3192 57.3415 38.9918 57.5256 39.3431C56.6422 38.9014 56.8229 38.1887 57.0237 37.8876L56.572 38.4397V37.4861C56.572 37.0043 55.7355 37.1515 55.3172 37.2853V38.4397C55.3172 38.8011 55.7187 38.5903 55.9195 38.4397C55.9195 38.791 55.6685 38.6906 55.6685 38.9416C55.6685 39.1424 56.2708 39.226 56.572 39.2427C56.4883 39.2427 56.3009 39.303 56.2206 39.5439C56.1202 39.845 57.2746 39.7446 57.4252 39.8952C56.6623 40.2967 55.9362 39.9621 55.6685 39.7446L55.9195 40.8488L54.9659 40.1462L54.7651 39.2427L54.3636 39.5439C54.4974 39.0922 54.6346 38.1687 54.1127 38.0884C53.5907 38.0081 53.6944 39.0252 53.8115 39.5439C53.8952 39.5773 54.0123 39.7145 53.8115 39.9956C53.6229 40.2596 53.39 40.2195 53.2793 40.1582C53.3816 40.2308 53.5354 40.4978 53.4602 41.0998C53.3598 41.9028 53.7111 42.0534 53.2594 42.0534C52.8981 42.0534 52.8412 41.6184 52.8579 41.4009C52.7375 41.963 51.9712 42.0701 51.6032 42.0534C51.737 41.8792 52.0147 41.5048 52.0549 41.4009C52.095 41.297 51.5697 41.1568 51.302 41.0998L51.1515 41.8526L50.6496 40.8488C50.0071 41.5715 50.3819 42.7226 50.6496 43.2077L49.8967 41.8526C49.9134 41.9864 49.9369 42.3645 49.8967 42.8062C49.8465 43.3583 49.2944 43.9606 49.0435 43.81C48.8427 43.6895 48.7256 42.8899 48.6922 42.5051L47.6382 43.6594C47.5043 43.3248 47.2367 42.6255 47.2367 42.5051C47.2367 42.3545 47.1363 44.061 47.2367 44.2617C46.2329 43.9606 46.7348 43.007 46.3834 42.5051C46.1258 42.137 45.5955 43.1184 45.3027 43.7871C45.2797 43.8566 45.2532 43.9163 45.2291 43.9606C45.2514 43.9062 45.276 43.848 45.3027 43.7871C45.375 43.568 45.412 43.2508 45.2291 43.007C44.9882 42.6858 44.5599 43.5089 44.3758 43.9606C44.1349 43.4788 44.6101 42.7895 44.8777 42.5051L43.9743 43.007V42.6556C44.3424 42.572 45.1688 42.2039 45.5302 41.4009C45.8916 40.5979 44.7439 41.3674 44.1249 41.8526L44.3758 41.4009L43.7736 41.5308Z" fill="#292421"/>
<path d="M43.1211 41.8526C43.3697 41.7717 43.586 41.662 43.7736 41.5308M43.7736 41.5308C44.8887 40.7513 44.9923 39.213 44.8777 38.4397C45.9485 38.3226 48.3107 37.9679 49.1941 37.4861C49.465 37.3383 49.6989 37.1206 49.8967 36.8738M43.7736 41.5308L44.3758 41.4009L44.1249 41.8526C44.7439 41.3674 45.8916 40.5979 45.5302 41.4009C45.1688 42.2039 44.3424 42.572 43.9743 42.6556V43.007L44.8777 42.5051C44.6101 42.7895 44.1349 43.4788 44.3758 43.9606C44.5599 43.5089 44.9882 42.6858 45.2291 43.007C45.47 43.3282 45.3294 43.7765 45.2291 43.9606C45.4967 43.3081 46.1024 42.1036 46.3834 42.5051C46.7348 43.007 46.2329 43.9606 47.2367 44.2617C47.1363 44.061 47.2367 42.3545 47.2367 42.5051C47.2367 42.6255 47.5043 43.3248 47.6382 43.6594L48.6922 42.5051C48.7256 42.8899 48.8427 43.6895 49.0435 43.81C49.2944 43.9606 49.8465 43.3583 49.8967 42.8062C49.9369 42.3645 49.9134 41.9864 49.8967 41.8526L50.6496 43.2077C50.3819 42.7226 50.0071 41.5715 50.6496 40.8488L51.1515 41.8526L51.302 41.0998C51.5697 41.1568 52.095 41.297 52.0549 41.4009C52.0147 41.5048 51.737 41.8792 51.6032 42.0534C51.9712 42.0701 52.7375 41.963 52.8579 41.4009C52.8412 41.6184 52.8981 42.0534 53.2594 42.0534C53.7111 42.0534 53.3598 41.9028 53.4602 41.0998C53.5405 40.4573 53.3598 40.1963 53.2594 40.1462C53.3598 40.2131 53.6108 40.2766 53.8115 39.9956C54.0123 39.7145 53.8952 39.5773 53.8115 39.5439C53.6944 39.0252 53.5907 38.0081 54.1127 38.0884C54.6346 38.1687 54.4974 39.0922 54.3636 39.5439L54.7651 39.2427L54.9659 40.1462L55.9195 40.8488L55.6685 39.7446C55.9362 39.9621 56.6623 40.2967 57.4252 39.8952C57.2746 39.7446 56.1202 39.845 56.2206 39.5439C56.3009 39.303 56.4883 39.2427 56.572 39.2427C56.2708 39.226 55.6685 39.1424 55.6685 38.9416C55.6685 38.6906 55.9195 38.791 55.9195 38.4397C55.7187 38.5903 55.3172 38.8011 55.3172 38.4397C55.3172 38.0783 55.3172 37.5195 55.3172 37.2853C55.7355 37.1515 56.572 37.0043 56.572 37.4861C56.572 37.9679 56.572 38.3226 56.572 38.4397L57.0237 37.8876C56.8229 38.1887 56.6422 38.9014 57.5256 39.3431C57.3415 38.9918 57.0839 38.3192 57.5256 38.4397C58.0776 38.5903 57.8267 39.5439 58.3788 39.5439V38.9416C58.613 38.8245 59.1015 38.5602 59.1818 38.4397C59.2621 38.3192 58.6799 38.1553 58.3788 38.0884L58.2784 37.3857L60.4868 37.2853L59.483 36.8336C60.035 36.5827 61.2396 36.0005 61.6411 35.6793C62.143 35.2777 60.286 36.4823 59.7339 36.1812C59.2922 35.9402 58.7468 35.7462 58.5294 35.6793C58.8138 35.6793 59.493 35.609 59.9347 35.3279C60.3763 35.0469 59.8176 35.0101 59.483 35.0268C59.7339 34.8093 60.3161 34.294 60.6373 33.9728C60.9585 33.6516 60.0016 33.9393 59.483 34.1234C58.9811 34.6922 57.8668 35.8399 57.4252 35.88C56.8731 35.9302 57.2244 36.9842 54.5644 36.3819C52.4363 35.9001 51.1013 35.4116 50.6997 35.2276C50.607 35.6103 50.3437 36.3162 49.8967 36.8738M49.8967 36.8738C49.8967 37.0845 49.8543 37.3937 49.7392 37.737M45.9317 42.2541C46.0794 41.8452 46.48 41.0754 47.1366 40.3971M47.1366 40.3971C47.4472 40.0763 47.815 39.7759 48.2404 39.5439C49.0914 39.0797 49.5325 38.3534 49.7392 37.737M47.1366 40.3971C46.9357 40.3302 46.5039 40.2365 46.3834 40.3971C46.263 40.5577 45.7644 40.7652 45.5302 40.8488M49.7392 37.737C49.9255 37.8542 50.2982 38.1888 50.2982 38.5903C50.2982 38.9918 50.2313 39.7279 50.1979 40.0458M48.2404 42.2541C48.642 41.953 49.455 41.1098 49.4952 40.1462C49.5353 39.1825 49.6123 39.2762 49.6458 39.4435C49.1104 39.6846 47.9995 40.3032 47.8389 40.8488C47.6382 41.5308 47.4374 42.2039 47.6382 42.5051M51.1515 40.5477C50.934 40.3636 50.6295 39.7848 51.1515 38.9416C51.6734 38.0984 51.4359 37.118 51.2518 36.7333C51.6032 36.9173 52.2556 37.5463 52.0549 38.5903" stroke="#CDA470"/>
<path d="M56.7734 36.4316C57.1248 36.532 57.9579 36.7227 58.4799 36.6826" stroke="#CDA470"/>
<path d="M52.0577 35.7295C51.9908 35.9972 51.877 36.5928 51.9573 36.8337C52.0577 37.1348 52.409 37.3858 52.409 37.7873" stroke="#CDA470"/>
<path d="M46.6865 31.1621C48.2257 32.2328 52.1873 33.9426 55.7207 32.216M50.2499 33.0693C50.2165 33.0191 50.1094 32.9388 49.9488 33.0191C49.7882 33.0994 49.6142 33.1529 49.5473 33.1697L49.4469 32.9187C49.2461 33.1529 48.8245 33.6314 48.7442 33.6716C48.6639 33.7117 48.1085 33.8221 47.8408 33.8723C47.7906 33.705 47.7705 33.3604 48.0918 33.3202C48.413 33.2801 48.2926 32.9354 48.1922 32.7681C48.0249 32.7514 47.6602 32.728 47.5397 32.7681C47.3892 32.8183 47.1382 32.7179 47.1382 32.6678C47.1382 32.6176 47.5899 32.6176 47.0378 32.216C46.4858 31.8145 46.2348 31.8145 46.285 31.7643C46.3352 31.7141 46.285 31.3126 46.2348 31.2122C46.1846 31.1119 46.2348 30.7605 46.6363 30.7605C47.0378 30.7605 47.4394 30.9613 47.4896 31.0115C47.5397 31.0617 48.2926 31.4632 48.3428 31.4632C48.393 31.4632 48.7943 31.5134 48.7442 31.4632C48.6941 31.413 47.6402 30.1583 48.1922 30.2586C48.6338 30.3389 49.012 30.794 49.1458 31.0115C49.2127 31.1955 49.3866 31.5435 49.5473 31.4632C49.7481 31.3628 50.1494 30.9111 50.2499 31.0115C50.3303 31.0918 50.3838 31.4465 50.4006 31.6138C50.4675 31.6305 50.6114 31.6539 50.6515 31.6138C50.7017 31.5636 50.8523 31.1621 50.8021 31.0115C50.7519 30.8609 50.7017 30.5598 51.053 30.6602C51.3341 30.7405 51.6721 31.0617 51.8059 31.2122C51.9565 31.1955 52.2375 31.2223 52.1572 31.4632C52.0568 31.7643 52.2576 32.216 52.358 32.216C52.4584 32.216 53.3116 32.5172 53.3116 32.3666C53.3116 32.2462 53.4789 31.9149 53.5625 31.7643C53.5291 31.9651 53.5525 32.3666 53.9139 32.3666C54.3656 32.3666 53.9641 31.9651 54.4158 32.0153C54.8675 32.0655 54.9177 32.1157 55.018 32.1157C55.1184 32.1157 55.0682 31.8145 55.269 31.7141C55.4697 31.6138 55.8211 31.6138 55.8713 31.6138C55.9215 31.6138 56.1222 31.3628 56.2226 31.413C56.3029 31.4532 56.3564 31.664 56.3732 31.7643C56.3564 31.8814 56.333 32.1357 56.3732 32.216C56.4233 32.3164 55.8713 33.0191 55.3192 32.9689C54.8775 32.9287 54.4659 33.086 54.3154 33.1697C54.3823 33.3202 54.5061 33.6615 54.4659 33.8221C54.4158 34.0229 54.7169 34.575 54.4659 34.6251C54.215 34.6753 54.1648 34.7255 53.9139 34.7757C53.6629 34.8259 52.4584 35.0267 52.3078 34.7255C52.1572 34.4244 52.358 34.6753 51.7055 34.3742C51.053 34.0731 51.1032 33.8723 50.9025 33.8723C50.7017 33.8723 51.2036 34.4746 50.6515 34.4746C50.2099 34.4746 50.0325 34.3073 49.9991 34.2236C50.1831 33.9392 50.4908 33.3102 50.2499 33.0693Z" stroke="#CDA470"/>
<path d="M36.8477 34.2236C36.9815 34.4912 37.1689 35.0467 36.8477 35.127C37.3663 35.0601 38.0924 34.7857 36.8477 34.2236Z" stroke="#CDA470"/>
<path d="M40.6119 32.216C41.0134 32.2963 41.3815 31.9818 41.5153 31.8145C41.6826 32.0654 41.9168 32.5974 41.5153 32.7179C41.1138 32.8383 40.7457 32.4335 40.6119 32.216Z" stroke="#CDA470"/>
<path d="M38.3032 33.019C38.3835 32.8182 38.9724 32.5338 39.2568 32.4167C39.0895 32.2996 38.6645 32.0955 38.3032 32.216C37.8515 32.3665 38.2028 33.27 38.3032 33.019Z" stroke="#CDA470"/>
<path d="M48.1665 35.1075C48.1065 34.8144 48.0693 34.2293 48.4003 34.2349C47.882 34.1653 47.1097 34.2424 48.1665 35.1075Z" stroke="#CDA470"/>
<path d="M44.0109 36.0725C43.6439 35.891 43.2069 36.0995 43.0344 36.2265C42.9377 35.9408 42.8492 35.3663 43.2682 35.3539C43.6872 35.3414 43.9379 35.8278 44.0109 36.0725Z" stroke="#CDA470"/>
<path d="M46.4488 35.8943C46.3193 36.0675 45.6769 36.1898 45.3718 36.2293C45.5031 36.3857 45.8608 36.6928 46.241 36.67C46.7163 36.6415 46.6107 35.6779 46.4488 35.8943Z" stroke="#CDA470"/>
<defs>
<linearGradient id="paint0_linear_1297_5465" x1="6" y1="1.22986e-05" x2="79.5184" y2="28.9138" gradientUnits="userSpaceOnUse">
<stop stop-color="#2E2721"/>
<stop offset="1" stop-color="#201F21"/>
</linearGradient>
</defs>
</svg>
