<svg width="69" height="69" viewBox="0 0 69 69" fill="none" xmlns="http://www.w3.org/2000/svg">
<circle cx="34.5" cy="34.5" r="34.5" fill="url(#paint0_linear_1297_5438)"/>
<path d="M30.577 52.6152C29.4655 53.5503 30.3548 56.8225 36.4525 57.5C44.0745 58.3469 50.9555 56.0557 48.7853 52.6152M30.577 52.6152C39.0035 56.5109 46.2269 54.2384 48.7853 52.6152M30.577 52.6152C29.7125 51.5742 28.5021 48.5819 30.577 44.9402C33.1707 40.3882 34.8117 38.3768 32.4298 29.2198C31.8123 27.4378 28.7035 23.9056 21.2085 24.0326C20.5 23.5 18.3502 24.0855 17.3445 24.3502C16.3388 24.6148 16.3918 23.4504 19.1442 22.2859C21.8966 21.1214 26.078 19.2159 33.5413 23.1857L33.8059 25.3559V25.7188C33.8412 26.001 34.494 25.2818 34.9175 24.3502C35.3409 23.4186 36.1172 22.5858 36.4525 22.2859C36.823 22.1094 37.6805 21.5872 38.1463 20.9097C38.612 20.2322 39.5754 18.9689 39.9988 18.4219V17.1516C39.4519 16.6929 38.6861 15.5637 39.9988 14.7168C39.9988 14.3992 39.9988 13.7111 39.9988 13.4994C39.9988 13.4659 39.9738 13.4305 39.9317 13.3946C39.7378 13.2294 39.7485 12.8586 39.9988 12.8113V12.8113C39.9283 12.4937 39.9671 11.8903 40.6869 12.0173C41.4068 12.1443 41.4456 12.5995 41.375 12.8113V12.8113C41.623 12.9973 41.7101 13.3296 41.5853 13.6133L41.2162 14.4521C41.4809 14.6991 42.0208 15.2461 42.0631 15.4578C42.1161 15.7225 42.3807 16.7811 41.7985 17.1516C41.3327 17.448 41.3221 18.122 41.375 18.4219C41.7103 18.4749 42.4125 18.7289 42.5395 19.3218C42.6665 19.9146 43.0512 20.6274 43.2276 20.9097H43.5452C43.7922 20.2745 44.4238 19.0042 44.9743 19.0042C45.6624 19.0042 43.8628 20.698 44.9743 21.4919C46.0859 22.2859 46.721 22.7623 46.8269 23.5562C46.9328 24.3502 50.6908 24.7736 50.2674 26.9967C50.585 26.9967 55.5605 28.3729 55.9839 30.596C56.4074 32.8191 57.3072 34.9893 54.5548 37.6358C51.8024 40.2823 49.791 41.2351 49.5793 42.3996C49.3676 43.5641 50.7967 46.0518 50.7967 46.7399C50.7967 47.2904 50.7967 47.9573 50.7967 48.222C51.0437 48.3631 51.4636 48.7301 51.1672 49.0689C50.8708 49.4076 50.4438 49.6335 50.2674 49.704C50.285 50.2333 50.0133 51.5566 48.7853 52.6152M45.3978 33.9307C45.6095 33.5072 45.1331 32.9779 45.186 32.6603C45.239 32.3427 45.7683 30.3314 46.1388 29.7491C46.4352 29.2833 47.3438 29.7491 46.8269 29.7491C46.9328 28.9552 47.0916 28.7434 47.9384 28.5317C48.7853 28.32 53.8138 28.0024 54.8195 31.9722C55.8251 35.942 52.0141 38.3239 50.0027 39.753C48.3937 40.8963 48.0176 42.4001 48 43C47.1955 41.0521 45.9094 39.2767 45.3978 38.6415C45.4819 38.4172 45.5927 37.9547 45.5073 37.5829M45.3978 33.9307C45.186 34.3541 44.9743 34.6717 45.0802 34.8834C45.1521 35.0273 45.3706 35.22 45.3706 35.6774M45.3978 33.9307C44.2862 34.1777 41.5232 34.5976 39.3637 34.3012M45.5073 37.5829C45.4852 37.4867 45.45 37.3966 45.3978 37.3182C45.1437 36.9371 45.1508 36.6301 45.186 36.5243C45.3218 36.1679 45.3705 35.8932 45.3706 35.6774M45.5073 37.5829C44.7651 37.8475 42.8465 38.271 41.1104 37.8475M45.3706 35.6774C44.9915 35.8538 43.8945 36.1537 42.5395 35.942M42.5395 20.7509C43.0335 21.3861 44.1168 22.6882 44.4979 22.8152C44.9743 22.974 44.7626 23.8738 44.9743 24.0326C45.186 24.1914 47.0386 25.1971 46.4564 25.5676C45.8741 25.9381 42.5924 26.3086 36.7171 25.9381M33.1863 23C32.7628 22.9471 26.4032 18.7244 19.681 22.059" stroke="#CDA470"/>
<path d="M29.834 51.1334C31.3513 51.8744 35.4235 53.2294 39.5733 52.7213M29.3047 48.6985C30.9279 49.7042 35.2541 51.4933 39.5733 50.604M29.6223 46.9518C31.7395 47.9399 36.6515 49.6725 39.3615 48.6985M30.4692 45.1522C32.0747 45.9814 35.9422 47.5023 38.5676 46.9518M31.369 43.6172C32.7628 44.4464 36.1857 46.0097 38.7264 45.6286" stroke="#CDA470"/>
<path d="M13.5332 36.4183C14.6976 38.4297 16.6349 43.1722 15.0681 46.0517C13.1097 49.651 10.4102 55.2616 18.4028 56.3203C26.3953 57.3789 28.4597 52.8798 25.6015 48.4336C23.3148 44.8766 24.6487 38.9413 25.6015 36.4183M13.5332 36.4183C18.4451 38.959 23.6253 37.4769 25.6015 36.4183M13.5332 36.4183C20.2235 34.4704 24.3663 35.6067 25.6015 36.4183" stroke="#CDA470"/>
<path d="M15.5446 42.6113C16.215 42.9113 17.8841 43.3312 19.1968 42.6113M15.5446 44.0405C16.1797 44.1993 16.709 45.6284 20.8906 44.3051M15.0682 45.946C16.3915 46.7929 19.7579 47.9256 22.6373 45.6813M14.0625 47.9044C14.6447 48.8748 17.0901 50.5721 22.2138 49.5982" stroke="#CDA470"/>
<circle cx="17" cy="27" r="1" fill="#CDA470"/>
<circle cx="16.8008" cy="26.9004" r="0.5" fill="#292421"/>
<defs>
<linearGradient id="paint0_linear_1297_5438" x1="6" y1="1.22986e-05" x2="79.5184" y2="28.9138" gradientUnits="userSpaceOnUse">
<stop stop-color="#2E2721"/>
<stop offset="1" stop-color="#201F21"/>
</linearGradient>
</defs>
</svg>
