<svg width="69" height="69" viewBox="0 0 69 69" fill="none" xmlns="http://www.w3.org/2000/svg">
<circle cx="34.5" cy="34.5" r="34.5" fill="url(#paint0_linear_1297_5424)"/>
<path d="M45.3876 29.8563C46.0405 29.6231 47.0587 31.0028 47.4862 31.7217C48.2441 32.0715 47.7776 34.1701 47.7193 34.5781C47.661 34.9862 46.7866 35.0445 45.3876 35.0445C43.9886 35.0445 43.6387 32.4212 43.5805 31.7217C43.5222 31.0222 44.5715 30.1478 45.3876 29.8563Z" stroke="#CDA470"/>
<path d="M46.0289 30.3223L45.854 32.3043M45.854 32.3043L47.1948 31.7796M45.854 32.3043L47.5446 33.8782M45.854 32.3043C45.9939 32.4345 45.8346 34.0297 45.7374 34.811M45.854 32.3043L44.9213 33.8782M45.854 32.3043L44.0469 32.5958M45.854 32.3043L44.2218 30.7303" stroke="#CDA470"/>
<path d="M47.2524 28.457C47.0387 29.0594 46.961 30.7772 48.36 32.8291C49.7591 34.8811 50.6529 35.2387 50.9249 35.1609M47.9519 29.6229C48.0491 30.75 48.6398 33.2838 50.2254 34.4031L50.9249 34.8112" stroke="#CDA470"/>
<path d="M27.8359 16.7986C29.0397 18.9135 30.8066 24.5937 28.2436 30.3948C26.2897 34.8172 23.9242 38.6285 24.5692 42.9853M27.8359 16.7986C33.3114 11.53 47.5828 14.9857 49.3885 16.7986C51.1943 18.6114 49.3571 19.0182 48.2503 19.1881M27.8359 16.7986C31.059 17.3651 35.0275 19.6414 45.2796 18.0551C49.6232 17.3831 48.6581 18.6783 48.2503 19.1881M48.2503 19.1881C47.1436 19.3581 43.7965 23.2001 48.6895 30.3948C53.5826 37.5895 52.2428 42.858 51.8933 45.6906C51.5515 48.4607 41.004 62.0069 31.0403 52.8861M24.5692 42.9853C27.8166 45.0988 36.1028 48.3295 43.2685 44.344M24.5692 42.9853C24.8217 44.6903 25.5352 46.4788 26.9148 48.4201M26.9148 48.4201C27.7903 49.6522 28.9342 50.9458 30.3989 52.3188C30.6119 52.5184 30.8257 52.7074 31.0403 52.8861M26.9148 48.4201C27.4171 48.4201 31.4932 50.6846 39.1924 49.3259M31.0403 52.8861C31.7951 53.23 33.9388 53.8146 36.4751 53.4019" stroke="#CDA470"/>
<path d="M31.4922 16.7173C31.9451 16.7173 36.9269 15.302 39.1914 16.0097C41.003 16.5758 44.4752 16.7173 45.9849 16.7173" stroke="#CDA470"/>
<path d="M29.5917 23.4431C29.0087 22.6853 27.4581 21.1579 25.9191 21.1113C23.9954 21.053 20.6143 20.6945 19.3318 22.1519C18.0493 23.6093 17 25.8332 17 28.2816C17 30.73 17.1749 36.7343 19.3318 39.1244C21.4887 41.5145 20.964 43.1467 24.6366 43.788M24.6366 39.8239C24.0537 39.1827 22.6313 37.8536 21.6053 37.667C20.3228 37.4339 18.982 33.3532 19.0403 32.5954C19.0986 31.8376 18.8116 27.1337 19.7982 24.9588C20.6465 23.0886 22.9461 22.5104 25.7442 23.2682C27.9827 23.8745 29.1253 25.5806 29.4168 26.3578" stroke="#CDA470"/>
<path d="M46.6714 26.7084C43.4847 28.2241 35.789 30.1459 29.6797 26.2285C33.9235 22.6375 42.5908 24.4349 46.4965 25.7174" stroke="#CDA470"/>
<path d="M28.8582 30.3741C29.0107 30.0758 29.2463 29.7043 29.5332 29.383M27.8672 32.5309C27.8983 32.9037 27.9976 33.4441 28.195 33.9883M29.5332 29.383C30.0875 28.7625 30.833 28.3297 31.5398 28.975C32.8805 30.1992 32.9388 31.0736 32.9388 32.5309C32.9388 33.9883 31.5981 36.495 29.8492 35.912C29.0093 35.6321 28.4915 34.8058 28.195 33.9883M29.5332 29.383C30.2409 28.5475 32.0528 27.5526 33.6384 30.2574C35.6204 33.6385 31.8312 36.7281 30.9568 36.5533C30.0824 36.3784 28.8726 36.6699 28.195 33.9883" stroke="#CDA470"/>
<path d="M30.3182 32.6473L28.773 29.398M30.3182 32.6473C30.3182 32.3675 30.8626 29.5026 31.0375 28.4922M30.3182 32.6473L32.3585 30.8984M30.3182 32.6473L31.9432 35.2122M30.3182 32.6473L29.2259 35.7385M30.3182 32.6473H27.8672" stroke="#CDA470"/>
<path d="M40.1277 34.0713C40.8856 33.7215 42.3546 32.9054 42.168 32.439C41.9349 31.8561 41.4102 31.04 40.769 31.2148C40.256 31.3547 39.9723 32.9442 39.8946 33.7215C40.0889 32.8276 40.3609 31.0283 39.8946 30.9816C39.3116 30.9233 37.9125 30.9234 37.9125 31.2148C37.9125 31.448 38.7287 32.7887 39.1367 33.43C38.7287 32.575 37.8193 30.9351 37.4462 31.2148C36.9798 31.5645 36.222 31.8562 36.2803 32.439C36.3269 32.9053 37.8542 33.4883 38.6121 33.7215C37.8542 33.3717 36.257 32.7304 35.9305 32.9636C35.5225 33.2551 35.231 34.5376 35.7556 34.5958C36.1753 34.6425 37.8348 34.4598 38.6121 34.3627C37.4462 34.4015 35.2776 34.6891 35.9305 35.5286C36.7467 36.5779 37.621 36.0532 38.6121 34.829C38.0097 35.412 36.8283 36.6128 36.9216 36.7528C37.0382 36.9276 37.5046 37.5106 38.3207 37.5106C38.9735 37.5106 39.0202 35.8395 38.9619 35.0039L39.2534 37.6272C39.8169 37.6855 40.9673 37.6738 41.0605 37.1608C41.1538 36.6478 40.0501 35.5091 39.4866 35.0039C40.089 35.7034 41.3403 37.0675 41.5269 36.9276C41.7601 36.7528 42.4596 35.8783 42.4596 35.5286C42.4596 35.2488 40.7496 34.9456 39.8946 34.829C40.7884 35.1011 42.5879 35.5169 42.6345 35.0039C42.6928 34.3627 42.6346 33.1968 42.4013 33.3134C42.2147 33.4066 40.8078 33.8575 40.1277 34.0713Z" stroke="#CDA470"/>
<path d="M42.6372 36.7528C44.0829 35.3537 42.8898 32.5167 42.1126 31.273C39.7225 29.3493 36.866 30.8067 36.2248 31.273C35.5835 31.7394 35.1172 34.421 35.1172 34.829C35.1172 35.2371 36.1082 37.2191 37.7987 37.9769C39.4893 38.7348 40.8301 38.5016 42.6372 36.7528Z" stroke="#CDA470"/>
<defs>
<linearGradient id="paint0_linear_1297_5424" x1="6" y1="1.22986e-05" x2="79.5184" y2="28.9138" gradientUnits="userSpaceOnUse">
<stop stop-color="#2E2721"/>
<stop offset="1" stop-color="#201F21"/>
</linearGradient>
</defs>
</svg>
