<svg width="136" height="38" viewBox="0 0 136 38" fill="none" xmlns="http://www.w3.org/2000/svg">
<rect width="136" height="38" fill="#242121"/>
<path d="M28.8186 13.1315C28.6773 10.4619 25.1086 8.84608 24.0226 8.41524C23.7518 5.37584 20.226 3 20.226 3C21.6155 5.91557 19.6847 8.20088 18.7923 9.0852C18.2455 9.62707 14.274 13.8014 11.1371 16.7729C8.71341 19.0689 8.32241 21.9012 10.1118 23.7852C10.8726 24.5866 12.8654 26.5047 12.8654 26.5047C12.8654 26.5047 11.8796 22.9593 13.5039 21.3359C14.4943 20.3457 18.4786 16.5945 22.7168 11.8949C23.638 10.8735 24.0099 9.85637 24.0362 8.89476C25.295 11.4431 24.1971 12.8646 23.3676 13.687C22.8208 14.2289 18.8492 18.4032 15.7123 21.3747C13.2886 23.6707 12.8976 26.5026 14.6866 28.3865C15.4478 29.188 17.4402 31.1065 17.4402 31.1065C17.4402 31.1065 16.4548 27.5611 18.0791 25.9373C19.0696 24.9475 22.9889 21.136 27.292 16.4967C28.1712 15.5492 28.6195 14.6785 28.7673 13.8873C29.7454 16.2029 28.7151 17.5249 27.9267 18.3059C27.3799 18.8482 23.4083 23.0221 20.2714 25.994C17.8478 28.2896 17.4568 31.1219 19.2462 33.0058C20.0069 33.8069 21.9997 35.7254 21.9997 35.7254C21.9997 35.7254 21.0144 32.18 22.6382 30.5566C23.6287 29.5663 27.548 25.7554 31.8515 21.116C35.995 16.6483 30.6178 13.8903 28.8186 13.1315Z" fill="#ED1C24"/>
<path d="M105.602 9.69348L105.565 16.5873C105.565 16.5873 108.101 11.5508 109.188 9.69431H114.672C114.736 9.8163 109.965 19.2442 109.965 19.2442C110.676 19.7305 115.294 28.6931 115.294 28.6931H109.498C108.915 27.8099 105.565 21.0055 105.565 21.0055L105.602 28.6546C105.293 28.8318 99.7697 28.6931 99.7697 28.6931L99.6903 9.69348H105.602ZM37 28.9579H42.796L43.7276 18.3553C43.8562 18.5207 45.9392 28.8368 46.0043 28.9579H50.2462C50.532 28.4717 52.7302 19.4038 52.7302 18.6209L53.7855 28.973C54.3553 28.973 59.5614 28.9579 59.5614 28.9579C59.5614 28.9579 57.4525 10.0812 57.3882 9.96084H50.6607C50.6607 9.96084 48.4883 18.7195 48.4883 18.9735C48.4883 18.9735 46.275 10.0812 46.2107 9.96084H39.484C39.4188 10.0812 37 28.9579 37 28.9579ZM97.1821 28.6931H91.6969C91.6334 28.5719 91.077 26.3068 91.077 26.3068H86.937L86.3154 28.6931H80.5203C80.5203 28.6931 85.5125 10.4463 85.7982 9.96001H92.8357C93.1465 10.4354 97.3116 28.4717 97.1821 28.6931ZM89.7318 21.9421L89.0066 16.711L88.2822 21.9421H89.7318ZM80.7701 19.4915C80.7701 25.2867 76.1096 29.9839 70.3612 29.9839C64.6121 29.9839 59.9516 25.2867 59.9516 19.4924C59.9516 13.6973 64.6121 9 70.3612 9C76.1096 9 80.7701 13.6964 80.7701 19.4915ZM75.1195 19.4924C75.1195 16.843 72.9889 14.6957 70.3612 14.6957C67.7327 14.6957 65.6022 16.843 65.6022 19.4924C65.6022 22.141 67.7327 24.2882 70.3612 24.2882C72.9889 24.2882 75.1195 22.141 75.1195 19.4924Z" fill="white"/>
<path d="M120.001 7C120.505 7 120.996 7.12849 121.477 7.38936C121.956 7.64633 122.33 8.01622 122.597 8.49708C122.866 8.97794 123 9.48021 123 10.0019C123 10.5178 122.868 11.0143 122.605 11.4912C122.34 11.9682 121.97 12.34 121.495 12.6029C121.018 12.8676 120.521 13 120.001 13C119.481 13 118.982 12.8676 118.509 12.6029C118.032 12.34 117.662 11.9682 117.395 11.4912C117.13 11.0143 117 10.5178 117 10.0019C117 9.48021 117.132 8.97794 117.401 8.49708C117.67 8.01622 118.046 7.64633 118.525 7.38936C119.006 7.12849 119.497 7 120.001 7ZM120.001 7.49838C119.578 7.49838 119.169 7.60545 118.77 7.8196C118.371 8.03764 118.059 8.34523 117.833 8.74822C117.608 9.14925 117.497 9.56781 117.497 10.0019C117.497 10.4341 117.606 10.8469 117.828 11.244C118.05 11.6411 118.359 11.9487 118.757 12.1707C119.154 12.3926 119.571 12.5016 120.001 12.5016C120.433 12.5016 120.848 12.3926 121.245 12.1707C121.645 11.9487 121.952 11.6411 122.172 11.244C122.392 10.8469 122.503 10.4341 122.503 10.0019C122.503 9.56781 122.39 9.14925 122.167 8.74822C121.943 8.34523 121.631 8.03764 121.23 7.8196C120.829 7.60545 120.422 7.49838 120.001 7.49838ZM118.685 11.6587V8.43089H119.795C120.174 8.43089 120.449 8.46204 120.616 8.52044C120.788 8.58079 120.922 8.68397 121.023 8.83193C121.123 8.98183 121.175 9.13952 121.175 9.305C121.175 9.54251 121.092 9.74692 120.922 9.92213C120.755 10.0973 120.531 10.1947 120.252 10.2161C120.365 10.2628 120.457 10.3212 120.527 10.3874C120.657 10.514 120.815 10.7281 121.004 11.0279L121.397 11.6587H120.76L120.474 11.1506C120.248 10.7515 120.067 10.5003 119.929 10.3991C119.833 10.3251 119.695 10.2881 119.512 10.2881H119.204V11.6587H118.685ZM119.204 9.84231H119.839C120.139 9.84231 120.346 9.79753 120.457 9.70604C120.568 9.61648 120.62 9.49773 120.62 9.34977C120.62 9.25438 120.595 9.16872 120.542 9.0928C120.49 9.01687 120.416 8.96042 120.322 8.92343C120.227 8.88838 120.054 8.86892 119.798 8.86892H119.204V9.84231Z" fill="white"/>
</svg>
